<?xml version="1.0" standalone="no"?>
<!DOCTYPE svg PUBLIC "-//W3C//DTD SVG 20010904//EN"
 "http://www.w3.org/TR/2001/REC-SVG-20010904/DTD/svg10.dtd">
<svg version="1.0" xmlns="http://www.w3.org/2000/svg"
 width="1000.000000pt" height="1000.000000pt" viewBox="0 0 1000.000000 1000.000000"
 preserveAspectRatio="xMidYMid meet">
<metadata>
Created by potrace 1.11, written by Peter Selinger 2001-2013
</metadata>
<g transform="translate(0.000000,1000.000000) scale(0.100000,-0.100000)"
fill="#000000" stroke="none">
<path d="M0 6840 c0 -952 2 -1730 4 -1730 3 0 61 64 129 143 69 78 133 151
143 162 11 11 58 65 106 120 81 93 210 223 538 540 293 284 625 540 999 771
91 57 204 127 251 157 86 54 190 101 485 220 337 135 572 209 1005 312 463
111 538 121 880 118 327 -2 514 -15 815 -57 408 -57 545 -81 760 -134 448
-111 751 -221 915 -332 14 -10 90 -55 170 -101 253 -146 492 -304 651 -431
135 -108 358 -289 544 -443 72 -59 200 -164 285 -233 85 -70 233 -194 329
-277 95 -82 192 -166 216 -185 23 -19 123 -105 223 -190 99 -85 228 -195 287
-245 60 -49 135 -114 169 -143 34 -29 69 -58 78 -63 17 -9 18 83 18 1871 l0
1880 -5000 0 -5000 0 0 -1730z"/>
<path d="M1911 6398 c0 -16 4 -28 9 -28 6 0 10 -5 10 -11 0 -6 -7 -9 -15 -5
-11 4 -15 -2 -15 -21 0 -20 -3 -24 -11 -16 -9 9 -17 6 -33 -8 -18 -17 -19 -21
-6 -29 13 -9 13 -10 0 -11 -10 0 -8 -3 5 -9 19 -8 19 -9 -2 -9 -25 -1 -26 -5
-28 -171 -1 -36 -4 -70 -7 -75 -3 -6 -5 -85 -5 -177 -1 -91 -4 -171 -7 -176
-3 -6 -2 -13 4 -17 7 -4 7 -12 0 -25 -7 -13 -6 -19 5 -24 8 -3 15 -1 15 3 0 5
9 7 21 4 16 -4 17 -8 7 -14 -10 -7 -10 -9 0 -9 6 0 12 -5 12 -11 0 -6 -6 -9
-14 -6 -8 3 -18 -4 -24 -18 -9 -20 -8 -22 9 -18 17 5 19 0 15 -58 -2 -35 1
-69 5 -75 5 -5 10 -39 11 -75 2 -35 6 -67 11 -70 8 -6 24 -96 29 -156 1 -18 6
-33 11 -33 4 0 5 -5 2 -10 -4 -6 -3 -16 2 -23 5 -7 9 -21 8 -32 0 -11 3 -28 8
-37 5 -12 4 -18 -3 -18 -7 0 -10 -6 -7 -12 2 -7 10 -12 17 -10 6 1 2 -15 -11
-38 -22 -38 -22 -40 -4 -60 10 -11 24 -20 32 -20 10 0 11 -8 7 -26 -5 -19 -4
-25 5 -20 16 10 14 -9 -3 -23 -12 -10 -12 -19 -4 -44 6 -18 15 -37 20 -44 5
-7 7 -17 4 -22 -4 -5 -2 -12 3 -15 5 -4 8 -18 5 -32 -3 -14 0 -32 7 -40 6 -8
8 -21 5 -30 -4 -11 1 -18 15 -21 14 -4 20 -13 19 -32 -3 -41 -1 -53 9 -47 4 3
7 -5 6 -18 -2 -19 3 -26 22 -30 18 -5 23 -11 18 -26 -4 -12 -2 -20 4 -20 6 0
11 -7 11 -15 0 -8 4 -15 9 -15 5 0 12 -13 16 -30 4 -16 12 -30 20 -30 16 0 27
-51 13 -67 -12 -15 -2 -33 15 -29 7 1 9 1 5 -1 -24 -14 34 -94 64 -90 12 1 23
-4 26 -12 3 -10 0 -12 -14 -7 -11 4 -2 -7 18 -24 20 -17 40 -39 43 -50 4 -11
11 -18 16 -15 8 5 13 -14 11 -36 -1 -4 10 -17 23 -29 14 -13 25 -29 25 -36 0
-7 8 -18 18 -23 9 -6 13 -11 8 -11 -16 0 44 -50 61 -50 13 0 13 -3 3 -15 -16
-19 1 -42 33 -47 12 -2 23 -9 23 -15 1 -7 2 -22 3 -33 1 -12 11 -22 26 -26 25
-6 37 -44 14 -44 -5 0 -7 -5 -3 -11 5 -8 10 -6 16 6 9 15 11 15 24 -3 7 -11
16 -36 18 -57 4 -31 2 -34 -10 -24 -8 6 -14 8 -14 3 1 -13 30 -50 30 -38 0 5
3 5 8 -1 4 -6 20 -17 36 -25 16 -8 35 -28 42 -45 15 -34 74 -85 101 -86 16 0
16 -1 -2 -9 -18 -8 -18 -9 -2 -9 31 -2 67 -32 67 -56 0 -13 -3 -25 -7 -28 -5
-2 -2 -2 5 -1 6 2 12 -3 12 -11 0 -8 5 -15 10 -15 6 0 10 -9 10 -20 0 -10 9
-24 20 -30 11 -6 18 -15 15 -21 -4 -5 -2 -9 3 -9 6 0 8 -8 6 -17 -6 -26 8 -43
39 -45 15 -1 26 -7 26 -13 -4 -32 2 -36 32 -30 22 5 29 4 25 -4 -5 -7 2 -11
16 -12 13 0 32 -2 43 -3 112 -15 167 -17 161 -7 -5 7 -1 9 8 5 9 -3 14 -10 11
-14 -8 -13 17 -25 45 -21 14 2 33 12 43 22 13 14 25 18 40 13 12 -4 46 -7 75
-7 56 1 78 -16 52 -40 -10 -9 -12 -8 -7 5 4 13 -2 17 -34 20 -22 2 -46 0 -55
-5 -9 -5 -21 -4 -31 5 -14 11 -15 11 -9 -1 7 -10 3 -12 -13 -6 -24 7 -28 -7
-7 -24 9 -8 16 -8 20 -2 4 6 12 8 20 5 7 -3 31 -1 54 5 24 5 42 5 42 0 0 -5
-4 -9 -10 -9 -5 0 -10 -5 -10 -11 0 -5 5 -7 12 -3 17 11 150 12 139 1 -5 -5
-7 -16 -4 -23 3 -8 0 -14 -7 -14 -15 0 -39 -29 -40 -47 0 -7 9 -13 21 -13 11
0 18 4 15 9 -4 5 4 7 16 4 17 -3 19 -2 9 5 -16 11 3 27 20 17 6 -4 17 1 24 11
12 16 12 21 -2 32 -15 11 -14 12 8 12 18 0 28 -8 36 -30 8 -21 8 -30 0 -33 -6
-2 -1 -6 12 -10 20 -5 22 -3 17 19 -4 14 -2 24 4 24 5 0 10 -7 10 -15 0 -8 7
-15 15 -15 8 0 15 -4 15 -9 0 -5 11 -8 25 -8 14 -1 22 4 18 10 -4 6 4 7 23 3
16 -4 39 -8 52 -9 12 -1 22 -5 22 -9 0 -3 31 -5 70 -3 46 1 68 -1 67 -9 -1 -6
10 -9 27 -8 18 3 26 0 22 -7 -4 -6 -2 -11 3 -11 6 0 11 4 11 10 0 5 12 8 28 5
89 -14 140 -14 146 0 3 8 11 15 18 15 9 0 8 -3 -2 -10 -8 -5 -10 -10 -5 -11 6
0 17 -2 25 -4 59 -12 81 -8 73 12 -5 13 -3 15 13 8 10 -4 34 -8 51 -8 26 -1
30 -3 22 -14 -9 -10 -7 -13 9 -13 15 0 20 5 16 15 -8 21 13 19 25 -2 10 -17
12 -17 24 -1 10 12 31 17 84 19 38 1 75 -1 81 -5 19 -11 75 -16 87 -7 5 5 31
6 56 2 25 -4 54 -4 65 -1 10 4 30 4 44 1 14 -4 48 -4 75 -1 28 3 66 0 85 -7
20 -6 36 -7 38 -2 5 11 35 12 48 0 15 -14 102 -22 110 -10 4 7 25 9 58 4 28
-3 58 -7 66 -7 8 0 21 -6 29 -11 7 -6 32 -12 55 -13 22 -1 79 -5 126 -8 112
-8 190 7 191 37 1 17 2 18 6 5 3 -14 11 -16 36 -11 18 3 34 9 37 13 3 3 19 5
35 4 36 -3 76 6 71 15 -8 13 193 6 206 -7 11 -11 9 -12 -7 -7 -15 5 -16 4 -6
-3 9 -6 24 -6 45 1 17 5 45 10 63 10 24 1 31 5 30 19 -1 10 -5 18 -10 18 -4 0
-5 5 -1 12 5 7 11 5 21 -7 11 -16 13 -16 13 -3 0 20 18 27 56 21 20 -3 25 -2
16 5 -11 7 -10 10 3 16 28 10 77 7 70 -5 -4 -6 -13 -8 -19 -6 -7 3 -19 1 -27
-4 -10 -6 -5 -9 18 -9 17 0 35 5 38 10 3 6 19 8 35 5 15 -3 39 0 52 5 21 9 20
10 -9 7 -18 -2 -33 0 -33 4 0 4 -10 5 -22 2 -19 -4 -20 -3 -8 6 19 14 113 15
105 1 -3 -5 -1 -10 4 -10 19 0 12 -20 -6 -21 -13 0 -11 -3 6 -10 17 -7 34 -6
53 2 35 14 31 23 -5 10 -22 -9 -26 -7 -32 16 -3 14 -4 27 -2 30 4 3 201 15
265 15 41 0 17 23 -26 24 -23 1 -53 5 -67 8 -14 4 -25 2 -25 -3 0 -6 -12 -10
-27 -9 -16 0 -52 -3 -80 -7 -38 -6 -53 -4 -53 4 0 10 7 12 50 16 8 0 21 4 27
8 7 5 32 9 55 9 24 1 48 5 53 9 6 4 30 10 55 13 78 9 110 22 110 42 0 8 4 14
10 14 5 0 6 7 3 17 -4 10 -2 14 4 10 6 -4 13 0 17 8 6 17 -9 21 -19 5 -12 -20
-27 -10 -23 15 4 18 1 25 -11 25 -14 0 -14 2 -1 10 10 6 11 10 3 10 -7 0 -13
7 -13 15 0 8 7 15 16 15 8 0 12 5 9 10 -3 6 3 10 14 10 12 0 21 5 21 10 0 6
-7 10 -15 10 -8 0 -15 5 -15 10 0 15 26 12 41 -6 9 -11 22 -14 46 -9 31 6 34
4 31 -17 -5 -37 -18 -51 -33 -38 -10 8 -15 6 -20 -10 -4 -12 -2 -27 4 -34 6
-7 7 -16 3 -20 -4 -4 -1 -6 7 -4 7 2 15 -2 18 -8 2 -7 -4 -11 -13 -10 -9 0
-19 -5 -21 -11 -7 -20 35 -15 46 5 5 9 13 16 18 14 4 -2 9 1 11 7 2 5 -9 11
-24 13 -34 4 -45 28 -13 28 12 0 28 -8 35 -17 7 -10 16 -15 20 -10 4 4 2 13
-4 19 -8 8 -7 15 6 24 10 8 12 13 5 14 -20 0 -15 20 5 20 19 0 62 34 62 50 0
5 17 26 38 47 26 27 46 38 67 38 22 0 29 4 27 17 -1 9 6 19 17 23 21 6 47 33
39 40 -9 10 -38 -7 -38 -21 0 -8 -5 -14 -12 -14 -6 0 -21 -8 -32 -17 -20 -17
-20 -17 -6 2 25 33 70 75 81 75 5 0 9 8 7 17 -2 10 3 18 10 19 6 1 15 3 20 4
4 1 10 2 14 1 4 0 20 12 35 28 31 31 41 71 17 71 -17 0 -19 20 -1 21 22 2 32
5 61 17 23 10 26 15 16 27 -10 12 -9 15 4 15 8 0 25 18 36 40 11 22 18 40 14
40 -4 0 -2 6 4 13 6 7 15 25 21 40 9 24 8 27 -9 27 -10 0 -21 -9 -25 -20 -6
-20 -24 -23 -37 -6 -9 13 16 36 39 36 10 0 24 9 31 20 7 11 19 20 27 20 8 0
15 9 15 21 0 13 -4 18 -12 13 -7 -5 -8 -3 -2 7 5 8 9 18 9 22 0 5 9 14 20 20
19 12 22 19 27 79 2 16 6 28 9 28 16 0 15 39 -2 51 -22 15 -16 29 14 29 16 0
18 3 9 12 -7 7 -8 17 -1 30 7 13 6 18 -3 18 -7 1 -2 7 12 15 25 14 25 14 3 15
-25 0 -31 15 -11 23 10 4 10 6 1 6 -7 1 -10 8 -7 16 4 10 0 15 -11 15 -9 0
-16 -7 -14 -17 3 -31 -1 -43 -12 -43 -6 0 -9 7 -5 15 3 8 1 15 -5 15 -6 0 -7
5 -2 13 4 6 8 48 9 92 1 90 11 145 25 145 5 0 9 12 8 28 0 15 -3 21 -6 15 -2
-7 -11 -13 -19 -13 -9 0 -13 4 -10 8 6 10 -35 9 -51 -1 -7 -5 -12 -16 -12 -25
1 -15 2 -15 6 1 2 9 11 17 20 17 9 0 13 -6 10 -14 -3 -7 -1 -18 4 -23 5 -5 0
-9 -12 -10 -26 -2 -39 -14 -22 -20 8 -3 6 -14 -8 -36 -25 -41 -24 -57 2 -54
12 1 24 -3 26 -9 2 -7 -5 -10 -22 -7 -16 4 -26 1 -27 -8 0 -8 -2 -18 -3 -24
-2 -5 -3 -16 -4 -23 0 -7 -8 -12 -17 -10 -13 3 -16 -12 -19 -87 -2 -49 -4 -90
-5 -90 -1 0 -3 -8 -5 -17 -2 -12 3 -18 16 -18 10 0 19 4 19 9 0 5 9 11 21 14
16 4 18 3 9 -8 -6 -7 -8 -20 -4 -29 3 -9 1 -16 -6 -16 -6 0 -8 -5 -5 -10 3 -6
1 -10 -6 -10 -8 0 -7 -7 3 -22 11 -17 12 -29 5 -45 -12 -26 -25 -30 -33 -9 -8
21 -36 7 -29 -14 3 -9 -1 -22 -9 -29 -8 -6 -12 -20 -9 -31 3 -10 -1 -36 -8
-57 -8 -21 -14 -43 -14 -49 0 -6 -8 -19 -18 -29 -30 -30 -49 -63 -42 -75 3 -5
0 -10 -8 -10 -8 0 -22 -11 -31 -25 -9 -14 -40 -49 -69 -78 -29 -28 -61 -65
-72 -82 -10 -16 -20 -24 -22 -18 -3 7 -10 10 -17 7 -7 -3 -23 -1 -37 5 -21 8
-22 10 -6 16 9 4 17 13 17 21 0 7 24 36 53 63 64 62 62 60 90 96 25 33 60 105
54 111 -2 2 -17 -8 -32 -22 -18 -16 -31 -22 -33 -15 -2 6 -9 8 -15 4 -8 -4 -7
-1 1 9 7 9 23 19 35 22 12 3 33 22 47 41 14 20 35 48 47 63 13 15 24 30 24 35
1 4 2 11 3 17 0 5 7 15 14 22 6 6 12 19 12 27 0 13 -2 14 -9 2 -5 -7 -14 -10
-20 -7 -16 10 -14 36 3 36 7 0 16 10 20 23 8 32 7 39 -4 32 -5 -3 -10 -1 -10
4 0 6 -5 11 -10 11 -6 0 -8 -10 -4 -24 3 -15 0 -33 -9 -47 -9 -12 -13 -28 -10
-35 3 -8 1 -14 -5 -14 -5 0 -20 -20 -33 -44 -26 -50 -42 -51 -33 -3 9 44 6 80
-7 88 -8 5 -5 13 9 25 13 11 18 21 11 25 -7 4 -6 11 3 20 19 19 21 62 3 55
-11 -4 -12 -1 -3 19 12 27 44 45 34 20 -3 -8 -1 -15 3 -15 5 0 11 7 15 15 3 8
1 15 -4 15 -5 0 -11 8 -15 19 -4 13 -12 17 -30 13 -29 -5 -32 5 -7 24 15 12
15 15 2 24 -8 5 -21 8 -27 5 -7 -2 -13 0 -13 6 0 7 12 8 30 4 37 -8 38 -3 3
30 -15 14 -23 25 -16 25 6 0 13 -4 15 -10 2 -5 9 -6 17 -1 18 12 27 197 10
218 -9 9 -9 13 0 13 16 0 14 29 -4 46 -17 18 -20 34 -4 34 5 0 7 -5 3 -11 -4
-7 -1 -10 7 -7 8 3 16 15 17 28 2 13 11 30 20 37 10 7 13 13 8 13 -5 0 -4 6 2
13 7 8 8 26 2 53 -5 23 -8 80 -5 129 2 48 -1 97 -6 109 -6 15 -7 8 -3 -24 l7
-45 -26 25 -26 25 19 30 c13 21 16 35 10 45 -8 12 -10 10 -10 -7 0 -28 -16
-30 -32 -4 -16 27 -61 8 -53 -23 5 -19 4 -19 -6 2 -7 12 -16 22 -21 22 -4 0
-8 4 -8 9 0 5 9 7 19 4 15 -4 21 2 26 26 4 17 11 31 17 31 6 0 8 -11 4 -26 -5
-17 -3 -23 4 -19 5 3 13 -2 17 -12 6 -14 9 -11 14 15 11 55 2 72 -35 66 -21
-4 -27 -3 -17 4 9 7 10 12 2 16 -6 4 -11 16 -11 27 0 16 -5 18 -25 13 -21 -5
-24 -3 -19 10 3 9 1 23 -5 30 -8 10 -9 16 -1 21 17 10 11 30 -12 40 -13 6 -22
17 -20 25 2 11 -2 10 -12 -3 -9 -12 -16 -14 -21 -7 -3 5 -10 8 -15 5 -5 -3
-11 -1 -15 5 -4 6 -10 8 -15 5 -5 -3 -11 -1 -15 5 -3 5 1 10 10 10 14 0 14 3
-2 30 -18 31 -18 31 11 53 26 21 27 25 15 45 -7 12 -20 24 -27 27 -7 2 -11 1
-8 -4 7 -10 -16 -61 -28 -61 -4 0 -6 9 -3 21 4 15 2 19 -9 15 -8 -3 -12 -1 -9
4 3 5 -3 17 -14 27 -14 12 -17 20 -10 29 10 12 -13 44 -32 44 -5 0 -8 3 -8 8
3 19 -2 33 -10 28 -5 -3 -14 1 -21 10 -7 8 -19 13 -27 10 -8 -3 -11 -1 -8 4 6
9 -8 14 -28 11 -4 -1 -17 8 -29 19 -20 19 -41 24 -78 22 -8 0 -18 5 -22 11 -5
9 -10 9 -20 -1 -15 -15 -28 -16 -28 -1 0 5 5 7 10 4 6 -3 10 -1 10 4 0 15 -37
14 -44 -1 -3 -7 -4 1 -1 17 4 20 3 25 -4 16 -9 -14 -35 -6 -27 8 8 12 -41 51
-63 51 -11 0 -23 5 -26 10 -3 6 -14 10 -23 9 -13 0 -12 -3 6 -11 12 -6 22 -19
22 -29 0 -10 9 -21 20 -24 22 -7 26 -20 9 -31 -14 -9 46 -48 63 -41 9 4 7 6
-3 6 -19 1 -33 27 -19 36 5 3 19 -6 32 -20 12 -14 28 -25 35 -25 7 0 13 -5 13
-11 0 -5 4 -8 9 -5 10 7 9 -20 -1 -30 -4 -3 -21 1 -39 10 -18 9 -30 13 -26 10
3 -3 1 -18 -4 -31 -8 -21 -6 -30 11 -45 11 -10 21 -14 21 -8 1 5 2 15 3 22 2
18 26 22 26 4 0 -9 5 -16 10 -16 6 0 10 7 10 15 0 21 24 19 45 -5 14 -15 20
-17 26 -8 6 9 10 8 15 -5 3 -9 10 -15 14 -12 5 3 21 -13 37 -34 22 -32 33 -39
51 -34 20 5 22 3 13 -20 -10 -25 -6 -37 11 -37 5 0 6 9 3 20 -4 12 -2 20 5 20
6 0 9 4 5 9 -9 16 9 20 23 5 11 -12 10 -14 -3 -14 -20 0 -19 -17 2 -28 15 -9
15 -11 -2 -28 -11 -12 -14 -19 -6 -22 6 -2 9 -8 5 -13 -7 -13 10 -11 23 2 12
12 53 3 53 -12 0 -6 -4 -8 -9 -4 -5 3 -13 0 -16 -6 -4 -5 -13 -8 -21 -5 -8 3
-14 -1 -14 -10 0 -12 7 -13 34 -9 26 5 36 3 43 -10 6 -9 12 -17 14 -16 2 0 14
-2 26 -5 15 -4 20 -11 16 -22 -4 -10 -2 -13 5 -8 6 3 13 2 17 -4 3 -5 2 -10
-2 -10 -5 0 -9 -9 -9 -20 0 -11 7 -20 16 -20 12 0 13 -2 1 -9 -8 -5 -11 -16
-8 -25 5 -12 0 -16 -19 -16 -22 0 -24 2 -13 21 9 17 8 20 -2 17 -8 -3 -18 4
-24 15 -14 29 -35 33 -28 6 4 -14 0 -25 -10 -30 -9 -6 -13 -17 -10 -30 8 -29
-17 -43 -34 -19 -8 12 -20 17 -30 13 -14 -5 -13 -8 5 -14 14 -6 22 -17 22 -33
0 -31 -10 -56 -22 -56 -5 0 -7 4 -4 9 4 5 3 11 -1 14 -5 2 -2 2 5 1 6 -2 12 5
12 16 0 11 -7 20 -15 20 -8 0 -15 -4 -15 -10 0 -5 -7 -10 -15 -10 -8 0 -14 3
-14 8 4 21 -2 42 -10 37 -5 -3 -13 0 -18 7 -10 17 -4 61 10 70 6 4 8 11 3 15
-5 4 -11 2 -13 -5 -3 -6 -8 -10 -12 -8 -4 3 -12 1 -19 -3 -8 -5 -7 -21 4 -64
8 -32 12 -62 9 -67 -3 -6 1 -7 10 -4 11 5 14 2 9 -10 -7 -18 -44 -22 -44 -4 0
6 -2 9 -5 6 -3 -3 0 -18 6 -34 7 -16 11 -34 10 -41 -1 -6 4 -15 10 -19 8 -5
10 -2 6 8 -3 9 0 21 6 27 8 8 7 11 -6 11 -19 0 -24 20 -4 21 6 0 27 2 45 3 27
3 31 1 21 -10 -6 -8 -17 -14 -24 -14 -20 0 -26 -30 -10 -46 8 -9 15 -24 15
-35 0 -16 -5 -19 -22 -14 -19 5 -20 4 -8 -5 11 -9 12 -13 3 -17 -7 -2 -13 -8
-13 -12 0 -12 34 -9 42 3 5 7 8 7 8 -2 0 -19 -23 -39 -38 -34 -7 2 -10 -2 -6
-11 3 -9 -3 -17 -18 -21 -31 -8 -46 -7 -32 2 6 4 15 22 19 41 6 28 5 33 -7 28
-14 -5 -16 5 -9 46 0 4 9 7 19 7 11 1 6 6 -13 15 -16 7 -25 14 -19 14 7 1 14
8 17 15 4 10 1 13 -9 9 -8 -3 -17 -16 -20 -28 -4 -15 -11 -22 -20 -18 -10 4
-12 0 -8 -11 4 -11 1 -16 -10 -16 -9 0 -19 7 -23 16 -3 8 -11 13 -17 11 -7 -3
-13 4 -13 14 -1 11 5 19 13 19 8 0 14 9 14 20 0 15 -7 20 -27 20 -16 0 -35 4
-42 9 -12 8 -11 13 10 31 22 19 22 20 2 11 -31 -16 -43 -13 -36 7 5 15 4 15
-9 -1 -7 -10 -20 -17 -27 -15 -7 2 -15 -2 -18 -9 -3 -7 3 -9 16 -6 15 4 21 1
21 -11 0 -20 20 -56 40 -73 12 -10 12 -12 1 -13 -7 0 -11 -6 -8 -13 3 -8 -17
-2 -50 15 -30 15 -58 28 -63 28 -4 0 -11 -12 -15 -27 -7 -26 -8 -26 -15 -8 -4
11 -4 21 1 23 13 5 -2 32 -18 32 -10 0 -13 6 -9 16 3 8 2 12 -4 9 -6 -3 -10 1
-10 10 0 12 8 16 30 13 16 -1 30 1 30 5 0 24 -14 67 -21 67 -14 0 -11 48 4 53
7 3 5 6 -5 6 -10 1 -18 7 -18 15 0 19 -27 28 -34 10 -3 -8 -12 -14 -19 -14
-15 0 -12 -46 4 -56 5 -3 9 -10 9 -15 0 -6 -6 -7 -12 -3 -9 6 -9 3 1 -9 8 -10
11 -27 7 -42 -4 -15 -2 -25 4 -25 6 0 8 -5 5 -10 -4 -6 -3 -16 2 -23 5 -7 9
-21 9 -32 -1 -11 7 -29 17 -39 13 -15 14 -22 5 -28 -9 -5 -8 -8 5 -8 9 0 17
-6 17 -14 0 -8 3 -16 8 -18 4 -1 16 -21 27 -43 15 -29 28 -42 50 -46 17 -4 22
-7 13 -8 -11 -1 -18 -9 -18 -20 0 -11 -4 -23 -10 -26 -5 -3 -10 -12 -10 -18 0
-8 3 -8 9 1 6 11 10 11 18 0 10 -13 10 -29 -2 -76 -4 -18 -1 -25 15 -29 19 -5
25 -16 21 -37 -1 -5 4 -13 11 -17 10 -6 7 -15 -10 -38 -13 -18 -21 -40 -18
-53 2 -13 0 -45 -4 -73 -5 -33 -4 -55 4 -64 8 -12 8 -13 -1 -7 -7 4 -13 3 -13
-2 0 -16 13 -22 26 -11 8 7 14 6 19 -2 4 -6 1 -15 -6 -20 -12 -7 -12 -9 0 -9
8 0 11 -3 8 -6 -3 -4 -1 -16 4 -27 6 -11 13 -29 14 -41 2 -11 6 -30 10 -42 4
-13 1 -27 -8 -35 -16 -17 -18 -49 -3 -49 6 0 5 -4 -3 -9 -9 -6 -10 -11 -3 -15
6 -4 8 -14 5 -23 -4 -10 -2 -14 5 -9 6 4 11 -1 11 -11 4 -127 -4 -213 -20
-213 -5 0 -9 -9 -9 -21 0 -11 -5 -29 -11 -40 -7 -15 -7 -24 1 -34 7 -9 9 -44
5 -104 -6 -93 -2 -109 16 -68 7 17 8 12 4 -22 -7 -52 -24 -90 -25 -53 0 13 -4
20 -10 17 -5 -3 -10 -13 -10 -22 0 -9 -7 -21 -15 -27 -18 -14 -29 -95 -15
-116 9 -13 12 -13 21 3 5 9 15 17 21 17 7 0 7 -5 -1 -14 -10 -11 -8 -17 6 -26
16 -9 15 -10 -6 -4 -15 4 -21 2 -17 -4 3 -6 -9 -12 -28 -14 -28 -3 -32 -1 -28
14 3 14 0 17 -12 12 -9 -3 -16 -12 -16 -20 0 -30 -43 -64 -80 -64 -36 0 -149
-48 -120 -50 29 -3 -41 -18 -133 -30 -82 -10 -128 -20 -177 -37 -8 -3 -35 -7
-60 -8 -70 -5 -130 -17 -136 -26 -2 -5 -18 -6 -34 -2 -23 4 -30 2 -30 -10 0
-12 -6 -14 -27 -8 -30 8 -240 6 -308 -3 -22 -3 -78 -10 -125 -16 -47 -6 -111
-12 -142 -12 -32 -1 -58 -3 -58 -5 0 -2 10 -8 23 -12 15 -6 2 -8 -39 -4 -38 2
-65 0 -69 -6 -4 -7 -16 -4 -34 10 -30 22 -54 26 -90 15 -16 -6 -21 -5 -17 3 5
7 -5 11 -28 11 -19 0 -38 -5 -41 -10 -4 -6 -11 -7 -17 -4 -6 4 -47 8 -92 10
-44 2 -106 8 -136 14 -30 6 -86 12 -125 14 -38 2 -86 7 -105 10 -19 3 -48 8
-64 11 -15 2 -33 11 -40 19 -8 12 -34 16 -97 18 -48 2 -82 6 -75 11 6 4 -12 6
-40 5 -28 0 -55 2 -61 5 -8 5 -55 13 -193 31 -9 1 -20 4 -25 7 -6 4 -35 7 -65
8 -30 1 -60 7 -67 13 -7 6 -21 8 -32 5 -10 -2 -25 0 -34 4 -8 5 -39 11 -69 14
-87 8 -131 17 -154 31 -11 8 -24 11 -27 7 -4 -3 -7 3 -7 15 0 12 -9 31 -20 42
-11 11 -19 21 -18 23 1 1 -3 11 -10 22 -11 19 -11 19 -12 1 0 -15 -3 -16 -15
-6 -11 9 -12 16 -5 25 13 16 -27 105 -47 105 -7 0 -13 5 -13 11 0 5 5 7 11 3
7 -4 10 -1 7 7 -2 8 -18 20 -34 28 -36 17 -45 31 -38 54 3 9 1 17 -5 17 -6 0
-11 7 -11 15 0 8 -5 15 -11 15 -8 0 -8 4 0 14 9 11 9 15 0 18 -6 2 -13 15 -15
28 -2 14 -8 49 -13 78 -6 29 -11 83 -12 120 -1 37 -7 75 -13 86 -8 14 -8 20 1
23 10 3 10 10 2 24 -5 11 -15 16 -21 13 -8 -5 -9 -2 -5 9 4 10 10 24 14 34 4
9 2 14 -3 10 -6 -3 -16 -1 -24 5 -12 8 -12 9 3 4 12 -4 17 0 17 15 0 12 -4 17
-11 14 -6 -4 -5 2 3 14 7 12 15 21 19 21 7 0 10 23 8 70 -1 19 -1 42 0 50 0 8
3 35 5 60 2 25 6 52 9 60 13 36 16 69 7 75 -5 3 -10 14 -9 23 0 11 3 12 6 5 2
-7 8 -13 11 -13 10 0 11 52 2 71 -7 12 -4 15 13 15 13 -1 23 6 25 17 2 10 -3
17 -11 17 -8 0 -20 7 -27 15 -8 10 -9 15 -2 15 6 0 9 8 6 18 -5 13 -4 14 4 3
6 -8 8 -20 5 -28 -6 -15 5 -17 25 -5 11 8 15 31 21 127 1 17 3 18 11 5 8 -13
10 -12 10 3 0 9 -6 17 -12 18 -7 0 -4 4 7 9 11 5 14 9 8 9 -8 1 -13 14 -13 31
0 17 -4 30 -10 30 -5 0 -10 5 -10 11 0 5 5 7 11 4 6 -4 13 3 16 15 3 12 11 19
18 16 8 -3 16 2 19 10 8 21 8 26 -2 20 -4 -2 -13 4 -20 14 -10 16 -9 18 5 13
12 -5 14 -3 8 7 -6 10 -4 12 8 7 12 -4 14 -2 10 10 -5 12 -3 14 6 8 10 -5 11
-2 6 14 -4 13 -2 21 5 21 6 0 8 5 5 11 -4 6 -13 8 -20 5 -10 -4 -9 7 6 40 24
57 24 73 0 48 -12 -13 -15 -21 -7 -26 8 -5 7 -8 -1 -8 -7 0 -13 -9 -13 -20 0
-11 -5 -20 -11 -20 -5 0 -7 -4 -4 -10 3 -5 -1 -10 -9 -10 -9 0 -16 -7 -16 -16
0 -8 -3 -13 -8 -11 -4 3 -8 -9 -9 -26 -4 -49 -6 -56 -13 -52 -4 2 -12 -7 -18
-20 -7 -14 -16 -25 -22 -25 -6 0 -9 -4 -6 -8 2 -4 1 -14 -4 -22 -7 -11 -9 -8
-7 10 1 13 12 35 24 48 12 14 20 29 17 34 -4 6 -1 14 5 18 9 5 8 10 -3 19 -13
11 -17 9 -25 -12 -6 -14 -18 -30 -28 -36 -13 -7 -14 -10 -4 -11 11 0 10 -4 -4
-13 -10 -8 -15 -19 -11 -25 4 -6 -1 -19 -11 -29 -17 -18 -23 -41 -25 -90 0
-13 -3 -21 -7 -19 -4 3 -8 -10 -8 -27 -1 -18 -3 -39 -6 -47 -2 -8 -9 -34 -16
-57 -6 -23 -10 -45 -9 -50 4 -19 -15 -113 -23 -113 -5 0 -9 -17 -9 -37 1 -21
-2 -54 -5 -73 -4 -19 -2 -46 5 -60 l10 -25 -3 27 c-2 15 2 51 10 80 8 29 15
65 14 80 0 19 4 25 14 21 16 -6 14 -41 -4 -88 -7 -16 -9 -45 -6 -63 4 -21 3
-32 -3 -28 -6 3 -8 -2 -5 -14 3 -12 0 -20 -6 -20 -7 0 -9 -5 -5 -12 5 -7 2 -9
-8 -6 -13 5 -13 2 -4 -25 6 -18 15 -38 19 -45 5 -7 4 -19 -3 -27 -6 -7 -9 -31
-6 -54 2 -23 0 -41 -5 -41 -5 0 -9 -11 -9 -25 0 -16 -6 -25 -15 -25 -9 0 -15
6 -14 13 4 34 -2 47 -23 47 -19 0 -20 -2 -8 -11 11 -7 12 -12 3 -15 -7 -3 -9
-12 -6 -20 4 -12 0 -13 -22 -4 -34 13 -35 13 -29 -5 4 -8 1 -15 -5 -15 -17 0
-13 57 4 64 8 3 15 10 15 16 0 6 -4 8 -10 5 -6 -3 -7 1 -4 9 4 9 1 16 -6 16
-10 0 -10 3 0 15 7 9 8 15 2 15 -6 0 -8 15 -5 38 2 20 6 48 7 62 1 14 5 31 10
38 4 7 3 19 -4 27 -13 15 -4 39 11 30 5 -4 10 9 10 27 3 50 5 61 13 80 4 9 5
22 1 27 -3 6 -1 21 6 33 9 16 9 23 0 26 -19 6 -12 22 26 58 39 37 39 47 -2 47
-19 0 -25 4 -21 14 3 8 6 17 6 21 0 3 6 -3 14 -14 12 -15 17 -16 27 -7 10 10
9 15 -1 28 -15 19 -7 30 16 21 9 -3 14 -12 10 -21 -3 -8 -1 -15 4 -15 6 0 10
1 10 3 12 76 12 79 -10 94 -15 10 -18 19 -12 25 6 6 8 17 5 24 -3 8 4 30 15
49 20 32 20 35 4 44 -16 10 -16 10 1 11 17 0 22 11 11 23 -16 15 -34 -8 -34
-44 0 -21 -4 -39 -9 -39 -14 0 -44 64 -31 68 5 2 10 30 10 62 0 32 7 71 15 86
30 57 14 85 -35 61 -16 -8 -31 -13 -33 -11 -11 12 8 56 28 64 27 10 41 40 20
40 -8 0 -15 7 -15 16 0 11 5 14 16 10 12 -5 14 -1 9 17 -10 31 -18 38 -35 27
-12 -8 -11 -10 5 -10 18 -1 19 -1 3 -11 -10 -5 -18 -18 -19 -27 0 -14 -2 -13
-9 3 -10 23 -11 21 -16 -19 -2 -16 -7 -32 -11 -35 -4 -3 -15 -26 -23 -50 -12
-35 -22 -47 -45 -54 -38 -13 -46 -24 -34 -54 5 -12 5 -23 0 -23 -5 0 -11 -9
-14 -21 -4 -15 -2 -19 9 -15 11 4 9 -3 -6 -24 -25 -35 -47 -41 -29 -9 6 12 7
19 1 15 -10 -6 -22 24 -22 57 0 13 5 17 18 13 13 -4 20 2 28 28 9 30 8 33 -8
28 -21 -5 -26 23 -5 31 9 4 8 8 -3 16 -8 5 -11 13 -8 17 4 3 14 -1 23 -10 21
-20 32 -14 40 24 4 17 13 30 20 30 11 0 25 20 25 36 0 2 -12 -1 -27 -7 l-28
-10 26 23 c15 13 35 35 44 51 10 15 23 27 31 27 12 0 12 35 0 47 -8 8 -61 -14
-59 -25 1 -5 -5 -9 -15 -8 -11 1 -16 -5 -14 -16 2 -10 -2 -18 -8 -18 -5 0 -10
-4 -10 -10 0 -5 9 -10 21 -10 15 0 19 5 15 16 -3 8 -2 13 3 9 5 -3 11 1 14 7
2 8 8 9 13 4 5 -5 4 -11 -4 -13 -6 -3 -10 -8 -7 -13 3 -5 -4 -11 -15 -15 -11
-3 -20 -11 -20 -16 0 -5 -12 -7 -27 -4 -27 6 -27 6 -9 -9 11 -9 14 -16 8 -16
-7 0 -12 -4 -12 -10 0 -5 6 -10 13 -10 7 0 13 -9 13 -20 0 -14 -7 -20 -21 -20
-15 0 -17 2 -6 9 7 5 9 11 5 14 -5 3 -21 -8 -35 -24 -15 -16 -23 -29 -18 -29
5 0 6 -7 2 -16 -5 -13 -7 -13 -14 -2 -6 9 -9 9 -9 1 0 -6 4 -15 10 -18 6 -4 0
-24 -16 -52 -18 -33 -23 -54 -19 -74 7 -32 7 -33 -29 -19 -29 11 -34 3 -10
-15 12 -8 15 -20 9 -43 -3 -18 -11 -32 -16 -32 -6 0 -7 -5 -4 -10 4 -6 12 -10
18 -9 26 3 37 -2 37 -17 0 -9 -5 -12 -12 -8 -19 12 -58 14 -58 3 0 -5 10 -9
22 -9 16 0 19 -3 11 -11 -6 -6 -9 -18 -6 -26 5 -12 1 -14 -15 -9 -18 6 -21 4
-15 -11 6 -16 5 -17 -12 -3 -17 14 -18 14 -6 -8 7 -14 18 -21 27 -18 9 3 14
-1 14 -14 0 -11 -5 -20 -11 -20 -21 0 -34 -26 -33 -62 1 -28 -3 -38 -18 -41
-14 -4 -17 -11 -13 -30 5 -18 2 -28 -12 -36 -14 -8 -14 -11 -3 -11 13 0 13 -2
0 -10 -12 -8 -12 -11 1 -27 24 -27 32 -56 15 -50 -8 3 -17 -1 -20 -9 -3 -8 1
-14 9 -14 7 0 14 -8 13 -17 0 -10 3 -30 6 -45 3 -15 1 -30 -4 -33 -8 -5 -7
-14 3 -28 8 -12 13 -35 11 -51 -4 -36 13 -69 29 -59 8 4 8 1 -1 -9 -11 -14
-10 -17 5 -22 19 -6 23 -20 26 -96 0 -25 6 -48 12 -52 5 -4 -2 -8 -17 -8 -16
0 -28 -4 -28 -9 0 -5 9 -7 20 -4 11 3 20 0 20 -6 0 -6 -4 -11 -10 -11 -5 0
-10 -9 -10 -20 0 -11 4 -20 8 -20 4 0 8 -10 9 -21 1 -12 10 -30 19 -40 19 -21
34 -18 16 3 -7 9 -6 17 4 26 11 10 15 8 24 -7 5 -11 7 -27 4 -35 -3 -9 -1 -16
5 -16 7 0 9 -13 7 -34 -4 -26 0 -38 20 -55 14 -12 30 -19 35 -15 8 4 7 0 0
-14 -8 -15 -7 -31 4 -61 13 -37 12 -41 -1 -41 -9 0 -18 8 -21 19 -2 10 -18 28
-35 41 -21 15 -29 29 -28 48 3 46 0 63 -9 57 -5 -3 -12 3 -14 12 -4 17 -5 17
-6 1 -1 -11 -9 -18 -21 -18 -12 0 -17 5 -14 14 3 7 -6 21 -20 30 -15 9 -26 12
-26 6 0 -6 10 -14 22 -19 12 -4 17 -10 12 -13 -5 -3 -19 -2 -31 3 -27 10 -30
44 -5 58 16 10 16 10 0 11 -12 0 -18 8 -18 24 0 14 -4 27 -10 31 -5 3 -7 12
-3 21 4 12 0 14 -21 8 -28 -7 -38 12 -11 22 8 4 12 10 9 15 -3 5 7 9 21 9 15
0 24 4 20 10 -3 6 4 10 17 11 13 0 18 3 11 5 -7 3 -10 11 -7 19 3 7 -5 20 -18
29 -12 9 -17 16 -11 16 15 0 -2 63 -18 69 -5 1 -2 10 8 18 10 8 12 12 6 8 -8
-4 -13 0 -13 10 0 8 -4 23 -9 33 -6 9 -12 30 -16 45 -3 16 -10 25 -16 21 -16
-9 -30 18 -17 33 7 9 6 39 -2 100 -7 48 -14 126 -15 173 -5 180 -17 302 -31
307 -19 7 -18 43 1 43 8 0 15 4 15 10 0 5 -8 6 -17 3 -14 -6 -13 0 6 30 23 37
23 37 2 37 -22 0 -30 33 -11 45 6 3 10 -1 10 -9 0 -8 3 -17 8 -19 4 -3 7 12 8
34 0 24 -5 40 -14 44 -10 4 -12 0 -8 -10 3 -9 2 -14 -3 -10 -5 3 -16 -2 -24
-10 -23 -22 -27 -19 -22 18 3 17 6 50 7 72 0 22 5 48 10 59 7 13 7 16 -1 12
-6 -4 -11 0 -11 8 0 9 5 16 11 16 6 0 8 9 4 20 -4 12 0 26 10 36 9 10 13 20 8
23 -10 7 -8 29 5 83 6 23 6 38 0 40 -14 5 2 39 23 46 16 7 16 8 -2 31 -14 17
-19 19 -19 7 0 -9 -4 -16 -10 -16 -5 0 -10 6 -10 13 0 9 -2 9 -8 0 -4 -7 -12
-9 -18 -5 -13 8 -15 42 -2 42 4 0 8 -4 8 -10 0 -5 6 -10 14 -10 20 0 29 30 11
36 -8 4 -15 10 -15 16 0 5 4 7 9 3 5 -3 13 0 17 6 4 8 3 9 -4 5 -7 -4 -12 -1
-12 8 0 9 -5 16 -11 16 -5 0 -7 5 -3 12 5 7 3 8 -6 3 -10 -6 -12 -3 -8 13 4
16 2 19 -11 15 -9 -3 -6 4 8 15 19 15 25 31 26 63 1 24 -1 49 -4 54 -9 17 -10
35 0 29 5 -3 10 4 10 15 2 29 3 34 13 49 4 7 3 19 -4 27 -7 8 -9 28 -6 47 6
32 6 32 -5 6 -6 -16 -15 -28 -20 -28 -13 0 -11 17 2 26 6 3 9 17 6 30 -2 13
-1 21 4 19 9 -6 23 34 15 42 -3 4 -6 -1 -6 -10 0 -9 -4 -17 -10 -17 -6 0 -6 9
0 24 5 15 5 27 -3 35 -8 8 -8 11 2 11 9 0 12 10 9 30 -3 17 -1 30 3 30 4 0 16
3 26 6 13 4 14 3 5 -4 -11 -7 -9 -11 9 -15 27 -7 44 2 45 24 2 22 -112 67
-128 51 -9 -9 -8 -12 4 -12 9 0 19 -4 22 -9 3 -5 -10 -8 -29 -8 -19 1 -35 5
-35 9 0 4 -7 8 -16 8 -13 0 -14 3 -5 14 7 8 21 12 34 9 28 -7 12 9 -23 24 -19
8 -30 8 -43 -2 -23 -16 -10 -27 17 -13 20 10 20 9 5 -7 -13 -13 -23 -15 -51
-7 -27 7 -35 7 -35 -4 0 -9 11 -14 28 -14 15 0 31 -4 34 -10 3 -5 1 -10 -5
-10 -6 0 -8 -5 -5 -10 4 -6 15 -8 25 -5 10 3 21 1 25 -5 3 -5 17 -10 30 -10
17 0 22 -5 20 -17 -1 -10 2 -24 8 -31 7 -9 6 -11 -6 -7 -15 7 -35 -30 -23 -42
3 -4 6 1 6 10 0 9 5 17 10 17 16 0 12 -18 -9 -39 -10 -10 -22 -28 -26 -40 -3
-12 -11 -21 -17 -21 -5 0 -7 7 -4 16 4 9 11 37 18 61 9 37 8 47 -3 54 -8 5 -9
9 -4 9 6 0 3 5 -7 10 -9 6 -24 7 -34 3 -15 -5 -14 -8 7 -16 13 -5 19 -11 12
-14 -7 -2 -11 -10 -9 -16 1 -7 1 -9 -1 -4 -8 13 -23 8 -23 -8 0 -8 -6 -15 -14
-15 -8 0 -17 -7 -20 -16 -4 -11 -2 -15 8 -11 11 4 14 -1 11 -21 -1 -15 -3 -35
-4 -44 0 -10 -6 -18 -12 -18 -6 0 -8 13 -5 30 4 27 2 30 -15 25 -17 -6 -18 -3
-10 18 6 14 7 28 4 31 -4 3 -1 6 4 6 14 0 11 26 -4 41 -8 8 -11 6 -10 -6 1
-10 -4 -20 -10 -22 -7 -3 -13 2 -13 11 0 27 -16 17 -18 -11 -3 -39 -33 -114
-43 -108 -4 3 -7 -3 -7 -12 0 -10 -1 -25 -4 -33 -3 -8 -3 -11 0 -6 3 5 13 -8
23 -29 15 -30 16 -41 7 -46 -7 -4 -18 -3 -26 3 -10 9 -16 8 -22 -1 -6 -10 -9
-10 -15 -1 -4 6 -13 9 -21 6 -20 -8 -17 8 5 28 10 9 21 34 25 56 3 21 13 46
22 55 9 9 13 19 10 23 -4 3 -11 0 -15 -7 -5 -8 -14 -10 -21 -6 -10 6 -12 2 -8
-13 4 -14 2 -20 -5 -15 -6 4 -8 -1 -5 -15 4 -13 0 -23 -8 -26 -8 -3 -14 -16
-14 -30 0 -14 -4 -28 -10 -31 -13 -8 -13 6 -1 38 8 20 6 29 -8 41 -10 9 -25
16 -32 14 -15 -3 -42 -48 -34 -56 3 -3 -2 -16 -10 -29 -9 -13 -16 -40 -18 -62
-1 -25 -6 -37 -14 -34 -10 4 -12 48 -3 48 1 0 3 21 4 48 1 26 -1 47 -5 47 -4
0 -6 26 -4 58 10 158 9 172 -21 172 -17 0 -19 -21 -3 -37 9 -9 5 -14 -16 -19
-20 -5 -23 -9 -13 -15 10 -7 9 -9 -5 -9 -10 0 -20 6 -23 13 -3 8 -12 14 -20
14 -12 0 -14 -8 -10 -36 6 -34 6 -35 -9 -16 -9 12 -13 28 -10 40 20 64 26 108
17 117 -14 14 5 68 23 68 27 0 33 -31 14 -69 -12 -25 -14 -40 -7 -48 7 -9 7
-13 0 -13 -14 0 -23 -26 -9 -28 7 0 22 -4 35 -7 13 -5 22 -3 22 4 0 5 -6 8
-13 5 -9 -3 -12 6 -9 36 2 22 8 40 13 40 4 0 6 -7 3 -15 -8 -20 3 -19 30 3 13
9 21 23 18 31 -3 8 0 11 7 7 6 -4 11 -4 11 1 0 12 -16 35 -24 34 -19 -3 -18 1
4 13 30 15 46 10 29 -10 -10 -13 -8 -14 16 -10 16 3 32 11 37 18 4 7 8 9 8 4
0 -14 30 15 30 30 0 8 -7 14 -16 14 -11 0 -14 -5 -10 -16 4 -11 2 -15 -8 -11
-9 4 -16 -3 -20 -16 -5 -18 -8 -19 -15 -8 -6 10 -3 19 12 31 19 15 20 20 8 34
-8 9 -21 14 -28 11 -8 -2 -24 0 -35 6 -17 9 -20 9 -16 -2 4 -10 -3 -14 -23
-15 -18 -1 -30 5 -33 15 -3 9 -4 -1 -1 -21 4 -41 -3 -52 -25 -38 -9 6 -18 3
-27 -8 -11 -15 -13 -12 -14 23 -1 22 0 45 1 50 1 6 3 15 3 21 0 6 9 9 19 6 10
-2 18 1 18 7 0 7 5 9 11 5 7 -4 0 -14 -18 -25 -20 -14 -23 -19 -10 -19 9 0 17
5 17 10 0 6 9 10 21 10 15 0 19 4 14 19 -5 16 -2 19 17 15 22 -5 22 -5 -2 10
-14 8 -20 16 -15 17 6 0 -2 4 -17 9 -36 11 -71 2 -64 -16 3 -8 1 -14 -4 -14
-5 0 -11 10 -13 23 -4 19 -4 18 -6 -5z m209 -109 c0 -9 -32 -23 -49 -20 -7 1
-11 -2 -8 -6 3 -5 -7 -14 -23 -20 -23 -9 -28 -8 -23 3 3 8 12 14 20 14 8 0 11
5 8 10 -3 6 3 14 15 18 26 10 60 10 60 1z m-85 -86 c-9 -8 -19 -13 -22 -9 -9
8 18 37 28 30 5 -3 2 -12 -6 -21z m22 -18 c0 -8 -4 -15 -9 -15 -10 0 -11 14
-1 23 9 10 10 9 10 -8z m-177 -25 c0 -5 -2 -10 -4 -10 -3 0 -8 5 -11 10 -3 6
-1 10 4 10 6 0 11 -4 11 -10z m30 -60 c0 -5 -4 -10 -10 -10 -5 0 -10 5 -10 10
0 6 5 10 10 10 6 0 10 -4 10 -10z m441 -83 c-10 -9 -11 -8 -5 6 3 10 9 15 12
12 3 -3 0 -11 -7 -18z m-337 -12 c3 -8 1 -15 -4 -15 -6 0 -10 7 -10 15 0 8 2
15 4 15 2 0 6 -7 10 -15z m336 -9 c0 -3 -4 -8 -10 -11 -5 -3 -10 -1 -10 4 0 6
5 11 10 11 6 0 10 -2 10 -4z m175 -28 c-1 -18 -7 -34 -14 -36 -8 -3 -8 -9 0
-24 9 -16 7 -24 -6 -37 -17 -15 -17 -15 -11 4 4 11 4 16 0 12 -13 -12 -42 23
-37 44 6 21 25 27 22 7 -4 -34 2 -40 16 -14 8 15 13 32 10 36 -6 10 5 40 15
40 4 0 7 -14 5 -32z m-539 -40 c-3 -24 -5 -47 -5 -52 -1 -6 -6 -5 -12 1 -7 7
-7 22 1 52 14 53 23 53 16 -1z m364 25 c0 -15 2 -16 10 -3 5 8 12 11 16 8 4
-4 -1 -19 -10 -33 -15 -23 -15 -25 0 -25 14 0 15 -2 3 -17 -13 -15 -14 -15
-17 0 -2 10 -11 18 -20 18 -15 1 -15 2 1 6 19 5 22 18 6 28 -6 4 -17 -1 -25
-11 -14 -18 -15 -17 -8 6 10 38 44 55 44 23z m-410 -42 c0 -11 -3 -22 -7 -24
-5 -3 -8 6 -8 19 0 13 3 24 8 24 4 0 7 -9 7 -19z m212 -14 c-5 -20 -11 -24
-22 -17 -12 7 -11 12 5 29 22 26 26 23 17 -12z m253 -18 c-4 -12 -8 -28 -9
-35 -3 -19 -13 -27 -39 -31 -21 -3 -21 -2 3 13 l25 15 -25 -7 c-14 -3 -23 -4
-20 0 57 69 77 83 65 45z m172 10 c15 -15 5 -39 -14 -39 -12 0 -13 3 -4 13 8
10 7 17 -1 25 -7 7 -8 12 -2 12 6 0 15 -5 21 -11z m-559 -26 c-2 -10 3 -23 11
-29 12 -9 11 -12 -6 -16 -17 -4 -20 0 -20 28 0 19 4 34 9 34 5 0 8 -8 6 -17z
m42 -7 c0 -11 -19 -15 -25 -6 -3 5 1 10 9 10 9 0 16 -2 16 -4z m446 -17 c3 -6
2 -14 -3 -18 -12 -7 -37 -105 -38 -146 0 -16 -3 -35 -8 -42 -4 -6 -1 -14 5
-16 8 -3 5 -6 -6 -6 -15 -1 -17 4 -13 29 5 23 3 28 -8 23 -20 -7 -19 7 2 22
10 7 17 27 17 49 1 20 5 36 10 36 4 0 5 7 2 16 -3 8 -2 12 4 9 9 -6 14 14 11
43 -2 15 15 16 25 1z m-516 -9 c0 -5 -2 -10 -4 -10 -3 0 -8 5 -11 10 -3 6 -1
10 4 10 6 0 11 -4 11 -10z m175 -11 c16 26 24 8 10 -24 -10 -26 -11 -35 -2
-34 25 3 38 -1 32 -11 -3 -5 -1 -10 5 -10 7 0 10 7 7 15 -8 19 5 26 23 14 12
-8 12 -12 3 -16 -7 -2 -13 -13 -13 -23 0 -11 -8 -24 -17 -29 -16 -9 -16 -12
-3 -21 8 -5 11 -10 5 -10 -5 0 -14 4 -20 8 -12 8 -16 44 -5 37 5 -3 11 -1 14
4 7 11 -22 23 -36 15 -5 -3 -7 -12 -4 -20 3 -7 1 -16 -4 -19 -6 -4 -10 6 -11
22 0 27 -1 27 -9 6 -13 -32 -20 -29 -17 7 1 16 7 30 13 30 20 0 24 30 8 58
-13 21 -13 23 -1 9 10 -12 17 -14 22 -8z m284 -21 c-8 -14 -14 -18 -17 -10 -4
13 17 46 25 38 3 -2 -1 -15 -8 -28z m-336 2 c3 -11 1 -23 -4 -26 -5 -3 -9 6
-9 20 0 31 6 34 13 6z m111 5 c-4 -8 -10 -15 -16 -15 -5 0 -6 -4 -3 -10 7 -11
-8 -14 -18 -3 -8 7 21 43 34 43 5 0 6 -7 3 -15z m-230 -11 c3 -8 2 -12 -4 -9
-6 3 -10 10 -10 16 0 14 7 11 14 -7z m338 -2 c-7 -5 -10 -16 -6 -28 6 -15 4
-17 -6 -7 -15 14 -7 43 12 43 11 0 11 -2 0 -8z m49 -6 c12 7 11 -7 -1 -26 -8
-13 -10 -12 -10 4 0 15 -3 16 -15 6 -18 -15 -20 1 -3 18 8 8 14 9 16 2 2 -5 8
-8 13 -4z m-371 -31 c0 -8 -2 -15 -4 -15 -2 0 -6 7 -10 15 -3 8 -1 15 4 15 6
0 10 -7 10 -15z m10 -44 c-12 -24 -33 -27 -49 -7 -9 11 -6 12 16 8 16 -2 25
-1 21 3 -4 4 -1 13 5 20 16 18 21 1 7 -24z m543 1 c7 -9 6 -11 -7 -6 -9 3 -16
16 -15 28 0 14 2 16 6 6 3 -8 10 -21 16 -28z m-205 14 c-7 -8 -15 -12 -17 -11
-5 6 10 25 20 25 5 0 4 -6 -3 -14z m82 -13 c0 -21 -3 -24 -9 -14 -5 8 -7 20
-4 28 8 21 13 15 13 -14z m-155 7 c3 -5 1 -10 -4 -10 -6 0 -11 5 -11 10 0 6 2
10 4 10 3 0 8 -4 11 -10z m-436 -27 c0 -5 -4 -17 -9 -28 -8 -18 -9 -17 -9 8
-1 15 4 27 9 27 6 0 10 -3 9 -7z m91 -3 c0 -5 -2 -10 -4 -10 -3 0 -8 5 -11 10
-3 6 -1 10 4 10 6 0 11 -4 11 -10z m385 0 c-3 -5 -11 -10 -16 -10 -6 0 -7 5
-4 10 3 6 11 10 16 10 6 0 7 -4 4 -10z m-375 -24 c0 -11 -19 -15 -25 -6 -3 5
1 10 9 10 9 0 16 -2 16 -4z m213 -3 c-7 -2 -19 -2 -25 0 -7 3 -2 5 12 5 14 0
19 -2 13 -5z m162 -2 c6 -10 -21 -41 -36 -41 -5 0 -9 5 -9 10 0 6 7 10 15 10
8 0 15 7 15 15 0 17 6 19 15 6z m20 -31 c3 -5 1 -10 -4 -10 -6 0 -11 5 -11 10
0 6 2 10 4 10 3 0 8 -4 11 -10z m4715 -22 c0 -5 4 -7 9 -3 5 3 12 1 15 -4 10
-15 -13 -24 -28 -12 -10 8 -17 7 -26 -4 -10 -12 -9 -15 6 -16 11 0 14 -3 7 -5
-7 -3 -9 -13 -6 -22 5 -12 -1 -11 -20 7 -23 21 -28 59 -6 45 8 -5 13 9 11 27
-1 4 8 5 18 2 11 -3 20 -10 20 -15z m-4910 8 c0 -3 -4 -8 -10 -11 -5 -3 -10
-1 -10 4 0 6 5 11 10 11 6 0 10 -2 10 -4z m-65 -16 c-3 -5 -1 -10 4 -10 6 0
11 -4 11 -10 0 -5 -6 -10 -14 -10 -8 0 -13 8 -11 18 5 23 4 22 11 22 3 0 2 -4
-1 -10z m305 -6 c0 -2 -7 -4 -15 -4 -8 0 -15 4 -15 10 0 5 7 7 15 4 8 -4 15
-8 15 -10z m148 -15 c-6 -4 -3 -11 8 -17 10 -6 15 -14 11 -18 -11 -12 -35 27
-29 49 4 14 7 15 13 6 4 -8 3 -16 -3 -20z m-215 -2 c3 -9 -4 -14 -23 -14 -22
0 -25 3 -16 13 14 17 33 17 39 1z m77 -7 c0 -5 -2 -10 -4 -10 -3 0 -8 5 -11
10 -3 6 -1 10 4 10 6 0 11 -4 11 -10z m4730 1 c0 -15 -33 -22 -44 -10 -8 9 -7
10 6 6 10 -3 20 -2 23 3 8 12 15 13 15 1z m-4698 -31 c-27 -25 -28 -37 -4 -43
11 -3 7 -5 -10 -6 -15 0 -30 4 -34 11 -4 7 -3 8 4 4 7 -4 12 -1 12 8 0 17 27
46 43 46 6 0 1 -9 -11 -20z m48 10 c0 -5 -2 -10 -4 -10 -3 0 -8 5 -11 10 -3 6
-1 10 4 10 6 0 11 -4 11 -10z m4686 -7 c-2 -9 -9 -19 -16 -21 -7 -3 -10 0 -6
7 4 6 0 11 -11 11 -15 0 -16 2 -3 10 23 15 38 12 36 -7z m-4776 -3 c0 -5 -4
-10 -10 -10 -5 0 -10 5 -10 10 0 6 5 10 10 10 6 0 10 -4 10 -10z m134 -6 c3
-8 2 -12 -4 -9 -6 3 -10 10 -10 16 0 14 7 11 14 -7z m-644 -4 c0 -5 -2 -10 -4
-10 -3 0 -8 5 -11 10 -3 6 -1 10 4 10 6 0 11 -4 11 -10z m410 5 c0 -3 -10 -16
-21 -28 -12 -12 -20 -17 -17 -12 3 6 8 18 11 28 6 15 27 25 27 12z m-90 -55
c0 -13 -5 -18 -14 -14 -8 3 -12 12 -9 20 8 21 23 17 23 -6z m36 -7 c-10 -10
-19 5 -10 18 6 11 8 11 12 0 2 -7 1 -15 -2 -18z m274 17 c0 -5 -4 -10 -10 -10
-5 0 -10 5 -10 10 0 6 5 10 10 10 6 0 10 -4 10 -10z m-440 -19 c0 -24 -10 -51
-19 -51 -4 0 -5 16 -3 35 4 37 22 49 22 16z m5160 9 c0 -5 -5 -10 -11 -10 -5
0 -7 5 -4 10 3 6 8 10 11 10 2 0 4 -4 4 -10z m-4807 -36 c-17 -13 -17 -14 1
-7 13 4 17 3 12 -5 -4 -7 -13 -12 -21 -12 -7 0 -15 -4 -17 -9 -1 -5 -10 -2
-18 7 -13 14 -12 15 3 9 12 -5 17 -1 17 13 0 11 5 20 11 20 5 0 7 6 3 13 -5 8
-2 7 9 -2 16 -13 16 -14 0 -27z m4777 26 c0 -5 -2 -10 -4 -10 -3 0 -8 5 -11
10 -3 6 -1 10 4 10 6 0 11 -4 11 -10z m-4705 -10 c3 -5 1 -10 -4 -10 -6 0 -11
5 -11 10 0 6 2 10 4 10 3 0 8 -4 11 -10z m-255 -10 c0 -5 -2 -10 -4 -10 -3 0
-8 5 -11 10 -3 6 -1 10 4 10 6 0 11 -4 11 -10z m-100 -25 c10 -12 10 -15 -4
-15 -9 0 -16 7 -16 15 0 8 2 15 4 15 2 0 9 -7 16 -15z m-50 -5 c0 -5 -4 -10
-10 -10 -5 0 -10 5 -10 10 0 6 5 10 10 10 6 0 10 -4 10 -10z m-40 -40 c6 0 9
-4 6 -9 -11 -18 -43 0 -41 22 4 33 5 34 15 10 5 -13 14 -23 20 -23z m397 15
c-4 -8 -12 -15 -19 -14 -10 0 -10 2 0 6 6 2 12 12 12 21 0 8 3 13 6 9 4 -3 4
-13 1 -22z m-200 0 c0 -8 -6 -15 -13 -15 -8 0 -11 6 -8 15 4 8 9 15 13 15 4 0
8 -7 8 -15z m-256 -18 c-10 -9 -11 -8 -5 6 3 10 9 15 12 12 3 -3 0 -11 -7 -18z
m126 3 c1 -11 -2 -20 -5 -20 -4 0 -8 9 -9 20 -1 11 2 20 5 20 4 0 8 -9 9 -20z
m393 10 c0 -5 -2 -10 -4 -10 -3 0 -8 5 -11 10 -3 6 -1 10 4 10 6 0 11 -4 11
-10z m30 -5 c0 -8 -4 -15 -10 -15 -5 0 -7 7 -4 15 4 8 8 15 10 15 2 0 4 -7 4
-15z m-384 -12 c-4 -9 -1 -20 6 -25 10 -6 10 -8 1 -8 -7 0 -13 -7 -13 -16 0
-8 4 -13 9 -9 16 9 23 -13 11 -35 -9 -18 -8 -20 14 -20 20 0 24 4 19 17 -6 15
-5 16 9 3 23 -21 12 -51 -16 -41 -11 5 -27 6 -33 4 -16 -6 -17 11 -3 38 12 21
10 22 -14 13 -9 -3 -16 -13 -16 -22 0 -10 -3 -13 -10 -6 -5 5 -7 20 -3 33 4
17 8 20 15 9 7 -9 8 -7 5 10 -3 12 -1 22 5 22 5 0 7 4 4 9 -6 10 3 41 11 41 3
0 2 -8 -1 -17z m260 -8 c3 -14 10 -22 15 -19 21 13 7 -15 -15 -29 -21 -14 -25
-14 -30 -2 -3 8 -1 15 3 15 5 0 8 14 7 30 -3 36 11 40 20 5z m4844 -10 c-7 -8
-17 -12 -22 -9 -6 4 -5 10 3 15 22 14 33 10 19 -6z m-4739 -32 c-12 -20 -14
-14 -5 12 4 9 9 14 11 11 3 -2 0 -13 -6 -23z m47 7 c-7 -10 -14 -18 -15 -16
-6 6 9 36 18 36 5 0 4 -9 -3 -20z m-528 0 c0 -5 -4 -10 -9 -10 -6 0 -13 5 -16
10 -3 6 1 10 9 10 9 0 16 -4 16 -10z m2 -35 c0 -5 -5 -11 -10 -13 -5 -1 -9 4
-9 13 0 9 4 14 9 13 5 -2 10 -8 10 -13z m52 -11 c9 -24 7 -27 -9 -10 -17 17
-19 26 -6 26 5 0 12 -7 15 -16z m321 5 c-4 -6 -11 -23 -15 -37 -6 -23 -9 -24
-15 -9 -5 11 -1 25 10 37 20 22 30 27 20 9z m635 -19 c0 -5 -8 -10 -17 -10
-15 0 -16 2 -3 10 19 12 20 12 20 0z m-990 -11 c11 -8 12 -12 3 -16 -7 -2 -13
-11 -13 -19 0 -8 -5 -14 -10 -14 -6 0 -10 6 -9 13 3 27 -2 36 -23 40 -18 3
-16 5 7 5 17 1 37 -3 45 -9z m30 -39 c0 -5 -2 -10 -4 -10 -3 0 -8 5 -11 10 -3
6 -1 10 4 10 6 0 11 -4 11 -10z m60 -46 c-18 -21 -24 -10 -9 18 8 14 14 18 17
10 2 -7 -2 -19 -8 -28z m-50 12 c0 -3 -4 -8 -10 -11 -5 -3 -10 -1 -10 4 0 6 5
11 10 11 6 0 10 -2 10 -4z m-36 -37 c5 -4 0 -7 -11 -6 -11 0 -25 7 -33 15 -11
12 -9 13 11 7 13 -4 28 -11 33 -16z m116 11 c0 -5 -4 -10 -10 -10 -5 0 -10 5
-10 10 0 6 5 10 10 10 6 0 10 -4 10 -10z m240 -23 c0 -3 -9 -3 -19 0 -12 3
-17 11 -14 19 4 11 7 11 19 -1 8 -7 14 -16 14 -18z m5030 23 c0 -5 -7 -7 -15
-4 -8 4 -15 8 -15 10 0 2 7 4 15 4 8 0 15 -4 15 -10z m-4345 -11 c11 -17 -1
-21 -15 -4 -8 9 -8 15 -2 15 6 0 14 -5 17 -11z m3651 -10 c1 -18 12 -47 29
-81 12 -24 12 -28 0 -28 -7 0 -17 10 -20 21 -6 17 -9 19 -16 8 -7 -9 -7 -5 -3
14 4 17 1 36 -9 51 -16 24 -12 39 7 33 6 -2 11 -10 12 -18z m692 -25 c0 -18
-3 -22 -9 -13 -11 18 -11 39 0 39 5 0 9 -12 9 -26z m-5048 1 c0 -8 -2 -15 -4
-15 -2 0 -6 7 -10 15 -3 8 -1 15 4 15 6 0 10 -7 10 -15z m4995 -11 c27 -6 28
-7 10 -14 -11 -4 -26 -5 -32 -3 -7 3 -13 -2 -13 -11 0 -18 11 -21 26 -6 7 7
17 5 30 -6 19 -15 18 -15 -4 -11 -12 3 -20 2 -17 -3 3 -4 -8 -10 -23 -13 -28
-5 -47 2 -25 10 10 4 9 11 -2 33 -20 39 -19 53 3 41 9 -6 31 -13 47 -17z
m-5125 6 c0 -5 -7 -10 -15 -10 -8 0 -15 5 -15 10 0 6 7 10 15 10 8 0 15 -4 15
-10z m-40 -14 c0 -2 -7 -7 -16 -10 -8 -3 -12 -2 -9 4 6 10 25 14 25 6z m5257
-12 c-3 -3 -12 -4 -19 -1 -8 3 -5 6 6 6 11 1 17 -2 13 -5z m-5357 -14 c0 -5
-5 -10 -11 -10 -5 0 -7 5 -4 10 3 6 8 10 11 10 2 0 4 -4 4 -10z m310 -11 c0
-6 -4 -7 -10 -4 -5 3 -10 11 -10 16 0 6 5 7 10 4 6 -3 10 -11 10 -16z m-348
-31 c-8 -8 -9 -4 -5 13 4 13 8 18 11 10 2 -7 -1 -18 -6 -23z m5371 20 c-4 -7
-8 -17 -8 -23 0 -5 -6 -10 -12 -9 -39 3 -44 5 -38 14 3 5 12 7 20 3 9 -3 15 1
15 11 0 9 7 16 16 16 10 0 12 -4 7 -12z m44 -5 c2 -6 -3 -13 -12 -16 -10 -5
-15 0 -15 14 0 21 21 22 27 2z m-5357 -9 c0 -14 3 -14 15 -4 16 14 18 10 9
-14 -9 -24 -31 -19 -36 9 -3 14 -1 25 3 25 5 0 9 -7 9 -16z m881 -13 c-7 -5
-10 -14 -7 -20 4 -6 2 -11 -3 -11 -15 0 -14 37 2 43 18 6 24 -3 8 -12z m-908
-8 c-7 -3 -9 -11 -6 -19 3 -8 0 -14 -6 -14 -12 0 -14 11 -5 34 3 9 11 13 17 9
8 -5 8 -8 0 -10z m970 2 c-3 -9 -8 -14 -10 -11 -3 3 -2 9 2 15 9 16 15 13 8
-4z m-183 -15 c0 -5 -2 -10 -4 -10 -3 0 -8 5 -11 10 -3 6 -1 10 4 10 6 0 11
-4 11 -10z m86 -16 c-6 -34 -15 -42 -26 -25 -5 9 -3 22 3 33 17 26 28 22 23
-8z m-684 2 c7 4 8 2 4 -4 -4 -7 -2 -12 4 -12 6 0 8 -4 5 -10 -3 -5 -11 -10
-16 -10 -6 0 -8 4 -5 9 3 5 -1 12 -10 15 -9 3 -12 11 -8 18 6 9 9 9 12 0 2 -7
9 -9 14 -6z m-72 -11 c0 -8 -7 -15 -15 -15 -26 0 -18 20 13 29 1 1 2 -6 2 -14z
m340 0 c0 -8 -4 -15 -10 -15 -5 0 -10 7 -10 15 0 8 5 15 10 15 6 0 10 -7 10
-15z m4630 -5 c-24 -15 -36 -11 -14 4 10 8 21 12 24 10 2 -3 -2 -9 -10 -14z
m26 -27 c-13 -14 -25 9 -13 28 12 20 12 20 15 -1 2 -12 1 -24 -2 -27z m-4809
5 c-3 -7 -5 -2 -5 12 0 14 2 19 5 13 2 -7 2 -19 0 -25z m5007 7 c-4 -8 0 -22
7 -31 11 -14 10 -15 -6 -13 -11 2 -26 0 -34 -5 -11 -7 -13 -4 -9 12 4 15 2 19
-8 15 -8 -3 -14 -2 -14 1 0 5 53 33 67 36 1 0 0 -7 -3 -15z m-5148 -22 c-7 -7
-26 7 -26 19 0 6 6 6 15 -2 9 -7 13 -15 11 -17z m780 10 c5 3 15 -1 22 -9 7
-8 8 -14 2 -14 -5 0 -10 -4 -10 -10 0 -5 5 -9 11 -7 16 3 21 -15 9 -33 -9 -13
-12 -13 -20 2 -6 9 -17 24 -25 32 -8 8 -15 25 -15 38 0 17 3 19 9 9 5 -7 13
-11 17 -8z m364 13 c0 -3 -4 -8 -10 -11 -5 -3 -10 -1 -10 4 0 6 5 11 10 11 6
0 10 -2 10 -4z m-1260 -36 c0 -5 -7 -10 -16 -10 -8 0 -12 5 -9 10 3 6 10 10
16 10 5 0 9 -4 9 -10z m35 0 c3 -6 -1 -7 -9 -4 -18 7 -21 14 -7 14 6 0 13 -4
16 -10z m365 -10 c0 -5 -5 -10 -11 -10 -5 0 -7 5 -4 10 3 6 8 10 11 10 2 0 4
-4 4 -10z m4315 -27 c7 -10 13 -18 12 -19 -13 -8 -67 -11 -67 -4 0 6 7 10 15
10 8 0 15 5 15 11 0 5 -5 7 -12 3 -7 -4 -8 -3 -4 4 4 7 1 12 -8 12 -8 0 -17 4
-21 9 -10 18 57 -8 70 -26z m-4778 5 c-3 -8 -6 -5 -6 6 -1 11 2 17 5 13 3 -3
4 -12 1 -19z m1288 12 c3 -5 1 -10 -4 -10 -6 0 -11 5 -11 10 0 6 2 10 4 10 3
0 8 -4 11 -10z m3975 -5 c-7 -9 -15 -13 -17 -11 -7 7 7 26 19 26 6 0 6 -6 -2
-15z m100 -6 c-7 -11 -14 -18 -17 -15 -3 3 0 12 7 21 18 21 23 19 10 -6z
m-5186 -11 c-3 -5 -12 -4 -20 3 -19 16 -18 18 6 12 11 -3 17 -9 14 -15z m4709
7 c8 -8 18 -11 22 -7 4 4 5 0 3 -8 -3 -8 -1 -23 4 -32 6 -12 5 -18 -3 -18 -9
0 -9 -3 0 -14 7 -8 22 -12 34 -9 18 4 19 3 7 -6 -8 -6 -23 -8 -32 -5 -10 3
-18 0 -18 -6 0 -7 -8 -10 -20 -7 -16 4 -18 1 -14 -22 4 -18 0 -32 -11 -41 -14
-12 -16 -12 -14 1 4 22 -20 71 -31 64 -5 -3 -10 -1 -10 4 0 6 -7 11 -16 11
-13 0 -14 3 -5 13 6 8 7 18 3 22 -4 5 -1 5 6 1 6 -4 12 -14 12 -22 0 -8 6 -14
13 -14 7 0 13 9 13 20 0 11 -4 20 -8 20 -4 0 -8 10 -8 21 0 18 5 21 30 17 21
-3 27 -1 20 6 -5 5 -10 14 -10 18 0 13 17 9 33 -7z m87 -12 c0 -25 -1 -26 -16
-11 -9 9 -13 21 -10 27 13 20 26 11 26 -16z m357 -5 c-3 -7 -5 -2 -5 12 0 14
2 19 5 13 2 -7 2 -19 0 -25z m-23 6 c8 -22 8 -24 -8 -24 -9 0 -14 9 -13 20 2
24 13 26 21 4z m-5084 -4 c0 -5 -4 -10 -9 -10 -6 0 -13 5 -16 10 -3 6 1 10 9
10 9 0 16 -4 16 -10z m5000 -10 c0 -5 8 -6 17 -3 13 5 15 3 9 -13 -4 -10 -9
-23 -10 -29 -4 -23 -18 -37 -28 -27 -6 6 -16 8 -22 6 -7 -3 -12 4 -12 15 0 18
2 19 16 6 22 -20 25 -19 27 7 2 18 0 20 -7 8 -8 -13 -10 -12 -10 3 0 9 -6 17
-12 17 -9 0 -8 4 2 10 19 12 30 13 30 0z m-5353 -30 c1 -16 -1 -17 -12 -7 -7
6 -11 15 -8 20 8 13 19 7 20 -13z m267 5 c-4 -8 -10 -15 -15 -15 -5 0 -9 7 -9
15 0 8 7 15 15 15 9 0 12 -6 9 -15z m666 3 c0 -4 -12 -8 -27 -8 -19 0 -24 3
-15 8 17 11 42 11 42 0z m42 -23 c3 -23 1 -32 -6 -25 -17 17 -28 11 -21 -10 5
-14 2 -20 -10 -20 -9 0 -14 4 -10 9 3 5 -5 17 -17 26 -13 9 -16 15 -8 14 27
-5 62 12 56 27 -3 8 -2 14 3 14 5 0 11 -16 13 -35z m78 -5 c-28 -28 -36 -20
-9 9 12 12 23 20 26 17 2 -2 -5 -14 -17 -26z m4073 10 c-3 -11 -9 -20 -14 -20
-5 0 -9 9 -9 20 0 11 6 20 14 20 9 0 12 -7 9 -20z m-4542 -23 c-10 -9 -11 -8
-5 6 3 10 9 15 12 12 3 -3 0 -11 -7 -18z m789 -12 c-4 -20 -4 -38 1 -41 5 -3
9 7 9 21 0 14 4 24 9 21 12 -8 -9 -106 -23 -103 -6 1 -10 -4 -8 -10 2 -12 -10
-17 -34 -14 -17 2 -46 -86 -31 -93 9 -3 9 -5 0 -5 -6 -1 -14 3 -17 8 -9 14 81
251 94 251 5 0 4 -16 0 -35z m4025 25 c3 -5 1 -10 -4 -10 -6 0 -11 5 -11 10 0
6 2 10 4 10 3 0 8 -4 11 -10z m-5114 -10 c5 0 9 -7 9 -15 0 -18 -9 -19 -32 -1
-22 16 -23 30 -2 22 9 -3 20 -6 25 -6z m809 0 c0 -5 -2 -10 -4 -10 -3 0 -8 5
-11 10 -3 6 -1 10 4 10 6 0 11 -4 11 -10z m4360 0 c0 -5 -2 -10 -4 -10 -3 0
-8 5 -11 10 -3 6 -1 10 4 10 6 0 11 -4 11 -10z m160 6 c0 -3 -4 -8 -10 -11 -5
-3 -10 -1 -10 4 0 6 5 11 10 11 6 0 10 -2 10 -4z m-720 -16 c0 -5 -4 -10 -10
-10 -5 0 -10 5 -10 10 0 6 5 10 10 10 6 0 10 -4 10 -10z m510 -10 c0 -5 -4
-10 -10 -10 -5 0 -10 5 -10 10 0 6 5 10 10 10 6 0 10 -4 10 -10z m-5199 -27
c13 -16 12 -17 -3 -4 -10 7 -18 15 -18 17 0 8 8 3 21 -13z m5418 10 c0 -5 -4
-17 -9 -28 -8 -18 -9 -17 -9 8 -1 15 4 27 9 27 6 0 10 -3 9 -7z m-4555 -9 c9
-3 16 -11 16 -16 0 -6 -7 -7 -16 -4 -8 3 -13 2 -10 -3 6 -10 -24 -25 -32 -16
-3 3 1 5 9 5 12 0 11 2 -1 10 -13 9 -13 11 0 20 18 12 15 11 34 4z m4079 0 c9
-9 -4 -35 -14 -28 -5 3 -9 12 -9 20 0 14 12 19 23 8z m-4853 -14 c0 -5 -4 -10
-10 -10 -5 0 -10 5 -10 10 0 6 5 10 10 10 6 0 10 -4 10 -10z m615 -28 c-2 -2
-11 2 -19 11 -8 8 -12 18 -8 21 3 4 12 -1 19 -10 7 -10 11 -20 8 -22z m44 29
c12 -8 12 -12 2 -25 -12 -15 -15 -15 -26 1 -20 28 -5 42 24 24z m4261 -5 c0
-3 -4 -8 -10 -11 -5 -3 -10 -1 -10 4 0 6 5 11 10 11 6 0 10 -2 10 -4z m-145
-16 c3 -5 1 -10 -4 -10 -6 0 -11 5 -11 10 0 6 2 10 4 10 3 0 8 -4 11 -10z
m-4780 -10 c3 -5 -1 -10 -9 -10 -9 0 -16 5 -16 10 0 6 4 10 9 10 6 0 13 -4 16
-10z m881 -12 c5 -7 2 -9 -7 -6 -10 4 -15 -1 -15 -12 0 -14 4 -16 18 -9 11 6
19 5 24 -3 4 -7 3 -8 -4 -4 -7 4 -12 3 -12 -2 0 -6 -16 -10 -35 -9 -19 1 -35
5 -35 10 0 4 4 6 9 2 5 -3 12 -1 15 4 4 5 2 12 -4 16 -6 4 -8 11 -5 16 9 13
42 11 51 -3z m-576 -19 c0 -5 -4 -9 -10 -9 -5 0 -10 7 -10 16 0 8 5 12 10 9 6
-3 10 -10 10 -16z m339 -22 c1 -5 -3 -5 -9 -2 -5 3 -10 -1 -10 -10 0 -9 4 -14
9 -10 16 9 23 -13 11 -35 -8 -15 -17 -19 -32 -14 -18 5 -20 3 -13 -12 4 -11 7
-28 5 -39 -1 -11 -2 -37 -2 -57 0 -37 -12 -51 -20 -25 -3 6 -5 -2 -5 -20 0
-18 4 -30 9 -27 4 3 8 -2 8 -10 0 -9 -6 -13 -13 -10 -10 4 -12 -3 -9 -27 4
-29 3 -30 -16 -20 -26 14 -37 31 -21 31 8 0 7 5 -3 18 -9 9 -14 22 -13 27 2 6
6 23 9 38 4 15 11 25 16 22 6 -3 10 -2 10 4 0 6 7 8 15 5 8 -4 15 -1 15 6 0 8
-9 11 -26 7 -20 -4 -24 -1 -18 12 4 9 7 24 8 34 0 9 6 17 13 17 17 0 23 14 13
30 -7 11 -11 11 -23 1 -13 -10 -15 -9 -13 6 2 10 13 20 25 23 12 3 22 7 21 10
-1 3 1 17 5 32 11 43 50 39 54 -5z m41 28 c10 -12 10 -15 0 -15 -7 0 -10 -8
-7 -19 3 -13 1 -18 -8 -15 -7 3 -16 15 -19 26 -9 37 11 51 34 23z m4560 -5 c0
-5 -5 -10 -11 -10 -5 0 -7 5 -4 10 3 6 8 10 11 10 2 0 4 -4 4 -10z m-5310 -10
c0 -5 -5 -10 -11 -10 -5 0 -7 5 -4 10 3 6 8 10 11 10 2 0 4 -4 4 -10z m302
-12 c-7 -7 -12 -8 -12 -2 0 14 12 26 19 19 2 -3 -1 -11 -7 -17z m858 -9 c0
-11 -4 -18 -10 -14 -5 3 -7 12 -3 20 7 21 13 19 13 -6z m4029 -39 c-13 -16
-27 -30 -33 -30 -5 0 3 13 18 29 19 20 24 31 16 36 -9 6 -9 10 1 16 24 15 22
-18 -2 -51z m211 50 c0 -5 -4 -10 -10 -10 -5 0 -10 5 -10 10 0 6 5 10 10 10 6
0 10 -4 10 -10z m-5063 -25 c0 -8 -6 -15 -14 -15 -17 0 -17 17 0 23 6 3 12 6
13 6 0 1 1 -6 1 -14z m473 -26 c0 -11 -4 -18 -9 -15 -5 4 -11 1 -13 -6 -3 -7
-7 -5 -11 6 -4 9 -3 15 2 12 5 -3 11 1 15 9 8 21 16 19 16 -6z m3945 11 c-3
-5 -10 -10 -16 -10 -5 0 -9 5 -9 10 0 6 7 10 16 10 8 0 12 -4 9 -10z m-4405
-40 c0 -5 -2 -10 -4 -10 -3 0 -8 5 -11 10 -3 6 -1 10 4 10 6 0 11 -4 11 -10z
m4435 -10 c3 -5 -1 -10 -9 -10 -9 0 -16 5 -16 10 0 6 4 10 9 10 6 0 13 -4 16
-10z m-3915 -20 c0 -5 -4 -10 -10 -10 -5 0 -10 5 -10 10 0 6 5 10 10 10 6 0
10 -4 10 -10z m30 6 c0 -3 -4 -8 -10 -11 -5 -3 -10 -1 -10 4 0 6 5 11 10 11 6
0 10 -2 10 -4z m-315 -36 c3 -5 1 -10 -4 -10 -6 0 -11 5 -11 10 0 6 2 10 4 10
3 0 8 -4 11 -10z m225 6 c0 -3 -4 -8 -10 -11 -5 -3 -10 -1 -10 4 0 6 5 11 10
11 6 0 10 -2 10 -4z m4545 -6 c3 -5 1 -10 -4 -10 -6 0 -11 5 -11 10 0 6 2 10
4 10 3 0 8 -4 11 -10z m-5001 -16 c3 -8 2 -12 -4 -9 -6 3 -10 10 -10 16 0 14
7 11 14 -7z m206 6 c0 -5 -4 -10 -10 -10 -5 0 -10 5 -10 10 0 6 5 10 10 10 6
0 10 -4 10 -10z m210 -5 c0 -8 -4 -15 -10 -15 -5 0 -7 7 -4 15 4 8 8 15 10 15
2 0 4 -7 4 -15z m4201 1 c5 3 9 0 9 -6 0 -15 -23 -7 -26 8 -1 7 0 8 3 2 2 -5
9 -8 14 -4z m254 5 c3 -5 1 -12 -5 -16 -5 -3 -10 1 -10 9 0 18 6 21 15 7z
m-435 -11 c0 -5 -4 -10 -10 -10 -5 0 -10 5 -10 10 0 6 5 10 10 10 6 0 10 -4
10 -10z m315 0 c3 -5 1 -10 -4 -10 -6 0 -11 5 -11 10 0 6 2 10 4 10 3 0 8 -4
11 -10z m-75 -10 c0 -5 -4 -10 -10 -10 -5 0 -10 5 -10 10 0 6 5 10 10 10 6 0
10 -4 10 -10z m-4665 -38 c3 -8 1 -21 -5 -30 -8 -14 -9 -13 -10 7 0 14 -8 33
-17 44 -18 19 -17 19 4 6 13 -7 25 -20 28 -27z m4835 -14 c0 -4 -9 -6 -20 -5
-14 1 -20 8 -20 24 0 22 1 22 20 6 11 -10 20 -21 20 -25z m27 36 c-3 -3 -12
-4 -19 -1 -8 3 -5 6 6 6 11 1 17 -2 13 -5z m-4947 -8 c0 -3 -4 -8 -10 -11 -5
-3 -10 -1 -10 4 0 6 5 11 10 11 6 0 10 -2 10 -4z m4525 -6 c3 -5 1 -10 -4 -10
-6 0 -11 5 -11 10 0 6 2 10 4 10 3 0 8 -4 11 -10z m-4240 -23 c10 -8 14 -16 9
-19 -5 -3 -17 3 -26 14 -21 21 -10 24 17 5z m4725 -20 c0 -5 -4 -5 -10 -2 -5
3 -10 14 -10 23 0 15 2 15 10 2 5 -8 10 -19 10 -23z m-4510 14 c0 -5 -7 -12
-16 -15 -14 -5 -15 -4 -4 9 14 17 20 19 20 6z m3953 -11 c-7 -25 -23 -27 -18
-2 2 9 4 18 4 20 1 1 5 2 10 2 5 0 7 -9 4 -20z m207 16 c0 -3 -4 -8 -10 -11
-5 -3 -10 -1 -10 4 0 6 5 11 10 11 6 0 10 -2 10 -4z m-4374 -63 c-10 -10 -19
5 -10 18 6 11 8 11 12 0 2 -7 1 -15 -2 -18z m4462 9 c2 -7 -2 -10 -12 -6 -9 3
-16 11 -16 16 0 13 23 5 28 -10z m-4688 -2 c0 -5 -5 -10 -11 -10 -5 0 -7 5 -4
10 3 6 8 10 11 10 2 0 4 -4 4 -10z m327 -52 c-3 -8 -6 -5 -6 6 -1 11 2 17 5
13 3 -3 4 -12 1 -19z m-93 -45 c-17 -17 -30 -17 -15 1 6 7 8 22 5 32 -6 18 -6
18 8 0 13 -16 13 -22 2 -33z m171 37 c-3 -5 -14 -10 -23 -9 -14 0 -13 2 3 9
27 11 27 11 20 0z m-691 -24 c-3 -9 -10 -13 -16 -10 -5 3 -4 12 3 20 15 18 22
13 13 -10z m607 8 c12 -15 11 -16 -11 -9 -35 10 -49 25 -23 25 11 0 27 -7 34
-16z m4606 10 c-3 -3 -12 -4 -19 -1 -8 3 -5 6 6 6 11 1 17 -2 13 -5z m-4182
-14 c3 -5 1 -10 -4 -10 -6 0 -11 5 -11 10 0 6 2 10 4 10 3 0 8 -4 11 -10z
m-745 -9 c0 -5 -7 -11 -14 -14 -10 -4 -13 -1 -9 9 6 15 23 19 23 5z m4425 -1
c3 -5 1 -10 -4 -10 -6 0 -11 5 -11 10 0 6 2 10 4 10 3 0 8 -4 11 -10z m416
-13 c-10 -9 -11 -8 -5 6 3 10 9 15 12 12 3 -3 0 -11 -7 -18z m-4551 -2 c-10
-12 -10 -15 1 -15 10 0 10 -3 1 -12 -14 -14 -21 -8 -27 21 -3 16 1 21 17 21
17 0 18 -2 8 -15z m4363 0 c-3 -9 -8 -14 -10 -11 -3 3 -2 9 2 15 9 16 15 13 8
-4z m256 -16 c-16 -10 -23 -4 -14 10 3 6 11 8 17 5 6 -4 5 -9 -3 -15z m-4889
-14 c0 -13 -4 -14 -20 -5 -11 6 -20 13 -20 15 0 3 9 5 20 5 11 0 20 -7 20 -15z
m320 -1 c0 -7 -4 -16 -10 -19 -5 -3 -10 -1 -10 5 0 6 -5 8 -10 5 -6 -3 -7 -14
-2 -23 16 -36 8 -56 -25 -63 -30 -6 -31 -5 -22 14 8 14 13 16 19 7 6 -9 9 -9
15 0 4 7 3 15 -2 19 -12 7 -26 44 -15 37 5 -3 14 3 21 13 15 20 41 24 41 5z
m-610 -21 c0 -10 -4 -14 -8 -8 -4 6 -11 13 -16 18 -5 4 -2 7 7 7 10 0 17 -8
17 -17z m361 -27 c5 3 9 0 9 -5 0 -6 6 -10 13 -8 7 1 11 -7 9 -22 -2 -15 0
-21 7 -17 7 5 11 -3 11 -21 1 -15 3 -49 5 -75 2 -27 2 -48 -1 -48 -6 0 -25 48
-31 80 -2 14 -8 29 -13 34 -5 5 -6 21 -3 36 4 21 1 28 -14 32 -12 3 -19 15
-20 34 l-2 29 11 -28 c5 -15 14 -25 19 -21z m5204 24 c3 -5 3 -10 -2 -10 -4 0
-17 -7 -27 -15 -19 -14 -19 -15 -2 -28 11 -8 16 -20 13 -28 -4 -11 -6 -10 -6
3 -1 11 -7 15 -20 11 -15 -4 -18 0 -14 21 3 15 12 26 22 27 10 0 11 2 4 6 -7
2 -13 9 -13 14 0 12 37 12 45 -1z m-855 -10 c0 -5 -5 -10 -11 -10 -5 0 -7 5
-4 10 3 6 8 10 11 10 2 0 4 -4 4 -10z m-4053 -16 c-3 -3 -12 -4 -19 -1 -8 3
-5 6 6 6 11 1 17 -2 13 -5z m-667 -14 c0 -5 -5 -10 -11 -10 -5 0 -7 5 -4 10 3
6 8 10 11 10 2 0 4 -4 4 -10z m30 0 c0 -5 -4 -10 -10 -10 -5 0 -10 5 -10 10 0
6 5 10 10 10 6 0 10 -4 10 -10z m250 -20 c0 -5 -5 -10 -11 -10 -5 0 -7 5 -4
10 3 6 8 10 11 10 2 0 4 -4 4 -10z m240 -15 c0 -9 -6 -12 -15 -9 -8 4 -12 10
-9 15 8 14 24 10 24 -6z m5100 5 c0 -5 -2 -10 -4 -10 -3 0 -8 5 -11 10 -3 6
-1 10 4 10 6 0 11 -4 11 -10z m-325 -10 c3 -5 1 -10 -4 -10 -6 0 -11 5 -11 10
0 6 2 10 4 10 3 0 8 -4 11 -10z m234 -42 c1 -5 -6 -8 -14 -8 -16 0 -19 9 -8
36 6 16 7 16 14 -2 4 -10 8 -22 8 -26z m-4966 16 c11 -11 -3 -24 -18 -18 -8 4
-12 10 -9 15 6 11 18 12 27 3z m52 -4 c3 -5 2 -10 -4 -10 -5 0 -13 5 -16 10
-3 6 -2 10 4 10 5 0 13 -4 16 -10z m4994 -7 c0 -10 -4 -27 -9 -38 -6 -16 -8
-12 -8 18 1 20 5 37 10 37 4 0 8 -8 7 -17z m-609 -14 c0 -10 -12 -11 -34 -3
-9 3 -14 10 -11 14 6 10 45 1 45 -11z m-4900 1 c0 -5 -4 -10 -9 -10 -6 0 -13
5 -16 10 -3 6 1 10 9 10 9 0 16 -4 16 -10z m-110 -10 c0 -5 -2 -10 -4 -10 -3
0 -8 5 -11 10 -3 6 -1 10 4 10 6 0 11 -4 11 -10z m4885 0 c-3 -5 -11 -10 -16
-10 -6 0 -7 5 -4 10 3 6 11 10 16 10 6 0 7 -4 4 -10z m-4198 -22 c-3 -8 -6 -5
-6 6 -1 11 2 17 5 13 3 -3 4 -12 1 -19z m-530 -21 c-7 -21 -25 -17 -29 7 -4
22 -3 24 14 15 11 -6 18 -15 15 -22z m-142 11 c3 -3 -1 -8 -9 -11 -8 -3 -17 0
-19 8 -5 13 16 15 28 3z m295 -3 c-12 -15 -30 -12 -30 6 0 5 10 9 21 9 18 0
19 -2 9 -15z m18 -35 c-1 -26 -3 -28 -13 -13 -13 17 -10 43 5 43 5 0 8 -13 8
-30z m69 -6 c-9 -9 -28 6 -21 18 4 6 10 6 17 -1 6 -6 8 -13 4 -17z m-260 -29
c8 -9 13 -19 9 -22 -3 -4 -15 3 -26 15 -23 25 -7 31 17 7z m318 -33 c-3 -3 -5
0 -5 7 0 7 -4 9 -10 6 -11 -7 -14 18 -3 29 4 4 11 -3 15 -15 5 -12 6 -24 3
-27z m-245 17 c0 -5 -4 -9 -10 -9 -5 0 -10 7 -10 16 0 8 5 12 10 9 6 -3 10
-10 10 -16z m4763 6 c-3 -9 -8 -14 -10 -11 -3 3 -2 9 2 15 9 16 15 13 8 -4z
m-3958 -15 c3 -6 -1 -7 -9 -4 -18 7 -21 14 -7 14 6 0 13 -4 16 -10z m-585 -33
c-1 -21 -1 -21 -15 -3 -8 10 -12 23 -9 28 9 14 24 -2 24 -25z m-250 3 c0 -4
11 -11 25 -14 14 -4 23 -11 20 -16 -10 -16 -22 -12 -50 15 -29 30 -31 37 -10
29 8 -4 15 -10 15 -14z m652 -29 c20 -32 20 -33 2 -29 -10 2 -19 12 -19 22 0
10 -9 24 -20 33 -18 13 -18 14 -2 11 10 -1 27 -18 39 -37z m-457 20 c3 -5 1
-12 -5 -16 -5 -3 -10 1 -10 9 0 18 6 21 15 7z m-118 -82 c3 -11 17 -26 32 -34
l26 -14 -29 -1 c-16 0 -27 3 -23 6 7 8 -16 33 -25 28 -4 -2 -10 1 -14 7 -4 8
-3 9 4 5 7 -4 12 -3 12 2 0 6 -7 12 -15 16 -8 3 -15 10 -15 16 0 18 42 -10 47
-31z m330 35 c-3 -3 -12 -4 -19 -1 -8 3 -5 6 6 6 11 1 17 -2 13 -5z m-187 -15
c0 -5 5 -7 10 -4 6 3 10 -1 10 -10 0 -13 -4 -14 -20 -5 -21 11 -27 30 -10 30
6 0 10 -5 10 -11z m373 -48 c-11 -2 -12 -5 -4 -10 6 -4 13 -17 16 -29 2 -12 7
-27 10 -32 3 -6 2 -10 -3 -10 -13 0 -42 45 -52 79 -10 37 9 54 32 27 15 -19
15 -21 1 -25z m-294 -25 c-2 -2 -14 0 -26 5 -15 5 -20 14 -16 28 5 20 6 20 25
-5 11 -14 19 -27 17 -28z m371 41 c0 -7 11 -21 25 -31 14 -11 24 -25 21 -33
-3 -7 0 -13 7 -14 9 0 9 -2 0 -6 -7 -2 -13 -9 -13 -14 0 -11 32 1 42 15 11 16
10 -6 -1 -23 -12 -19 -71 -5 -71 18 0 9 -5 22 -12 29 -14 14 -21 72 -8 72 6 0
10 -6 10 -13z m4430 9 c0 -11 -19 -15 -25 -6 -3 5 1 10 9 10 9 0 16 -2 16 -4z
m-90 -26 c0 -5 -2 -10 -4 -10 -3 0 -8 5 -11 10 -3 6 -1 10 4 10 6 0 11 -4 11
-10z m-4383 -102 c5 -7 10 -26 12 -43 2 -16 7 -35 13 -42 5 -6 8 -20 7 -30 -1
-10 4 -31 11 -48 7 -16 13 -33 12 -37 -1 -3 6 -12 14 -19 14 -11 19 -10 35 10
14 17 25 22 43 17 22 -5 29 -26 14 -42 -4 -3 2 -14 13 -25 11 -11 17 -25 13
-31 -5 -8 -11 -6 -19 5 -6 9 -28 18 -48 20 -24 2 -45 14 -65 35 -16 17 -27 33
-25 36 3 3 -4 11 -16 18 -12 7 -21 21 -21 30 0 10 -6 18 -12 19 -10 0 -10 2 0
6 6 2 12 9 12 14 0 6 -4 7 -10 4 -6 -4 -6 4 0 21 8 19 8 30 0 38 -12 12 -13
56 -1 56 5 0 13 -6 18 -12z m-262 -26 c-7 -8 -35 7 -35 18 0 6 7 6 20 -2 10
-7 17 -14 15 -16z m426 -16 c19 -3 37 -5 40 -5 4 -1 9 -8 13 -16 4 -13 2 -13
-14 -5 -10 5 -30 10 -44 10 -15 0 -31 8 -38 19 -6 11 -19 17 -27 14 -14 -4
-14 -4 -1 6 11 8 18 7 26 -4 6 -8 26 -17 45 -19z m-391 4 c0 -5 -4 -10 -10
-10 -5 0 -10 5 -10 10 0 6 5 10 10 10 6 0 10 -4 10 -10z m4180 -15 c-5 -6 -7
-15 -3 -18 3 -4 0 -13 -7 -22 -9 -11 -9 -15 -1 -15 7 0 9 -5 6 -10 -4 -6 -10
-8 -14 -6 -7 5 -7 22 -2 88 1 4 8 5 16 2 11 -5 13 -10 5 -19z m-3820 -72 c0
-7 8 -13 18 -13 14 0 15 -2 2 -10 -26 -17 -38 -11 -43 23 -3 17 -8 46 -12 62
-5 27 -4 25 14 -10 11 -22 20 -46 21 -52z m4040 57 c0 -5 -4 -10 -10 -10 -5 0
-10 5 -10 10 0 6 5 10 10 10 6 0 10 -4 10 -10z m455 -9 c-3 -6 -11 -11 -17
-11 -6 0 -6 6 2 15 14 17 26 13 15 -4z m-4433 -29 c11 -11 20 -72 11 -72 -10
0 -32 28 -26 34 4 4 -3 13 -15 22 -12 8 -22 19 -22 23 0 11 39 6 52 -7z m33 0
c-3 -3 -11 0 -18 7 -9 10 -8 11 6 5 10 -3 15 -9 12 -12z m3748 -12 c-3 -11
-10 -23 -16 -27 -7 -4 -8 0 -4 11 4 10 7 24 7 32 0 9 4 13 9 10 5 -3 7 -15 4
-26z m-4156 -20 c-3 -13 0 -20 9 -20 8 0 14 -4 14 -9 0 -5 10 -12 23 -16 l22
-8 -22 -4 c-36 -7 -62 13 -60 47 1 17 6 30 11 30 4 0 6 -9 3 -20z m138 0 c-3
-6 1 -13 9 -16 9 -3 13 -10 10 -16 -8 -12 -34 10 -34 28 0 8 5 14 11 14 5 0 7
-5 4 -10z m4596 -29 c-12 -8 -12 -12 2 -26 23 -22 21 -28 -3 -15 -25 13 -27
50 -2 50 14 0 14 -2 3 -9z m-4261 -21 c0 -5 -2 -10 -4 -10 -3 0 -8 5 -11 10
-3 6 -1 10 4 10 6 0 11 -4 11 -10z m-45 -10 c3 -5 -1 -10 -9 -10 -8 0 -18 5
-21 10 -3 6 1 10 9 10 8 0 18 -4 21 -10z m-235 -9 c0 -6 -4 -13 -10 -16 -5 -3
-10 1 -10 9 0 9 5 16 10 16 6 0 10 -4 10 -9z m4500 -12 c0 -5 -4 -9 -10 -9 -5
0 -10 7 -10 16 0 8 5 12 10 9 6 -3 10 -10 10 -16z m-4239 -11 c27 11 42 0 51
-36 8 -30 0 -28 -12 4 -8 19 -14 23 -23 16 -12 -10 -17 -12 -39 -12 -9 0 -8
-4 2 -11 13 -9 13 -10 0 -6 -8 2 -16 17 -17 33 -1 17 1 24 6 16 5 -9 15 -10
32 -4z m-226 -58 c3 -5 -3 -10 -14 -10 -12 0 -21 5 -21 10 0 6 6 10 14 10 8 0
18 -4 21 -10z m4295 -26 c0 -6 -8 -14 -19 -17 -15 -4 -18 -12 -15 -46 2 -22
-1 -41 -6 -41 -6 0 -10 -4 -10 -10 0 -5 10 -10 22 -10 12 0 19 -3 15 -6 -14
-14 -56 8 -71 37 -13 25 -13 30 -2 26 14 -5 26 12 26 35 0 7 -5 6 -14 -1 -8
-7 -17 -8 -20 -3 -9 15 30 42 43 29 8 -8 11 -7 11 4 0 8 9 15 20 15 11 0 20
-6 20 -12z m-4060 -14 c0 -5 -5 -10 -11 -10 -5 0 -7 5 -4 10 3 6 8 10 11 10 2
0 4 -4 4 -10z m3756 -55 c-11 -8 -22 -12 -25 -9 -6 6 19 24 34 24 6 -1 1 -7
-9 -15z m-4261 -5 c-3 -5 -12 -10 -18 -10 -7 0 -6 4 3 10 19 12 23 12 15 0z
m4486 -53 c-1 -4 -1 -14 -1 -22 0 -8 -6 -15 -14 -15 -11 0 -15 28 -7 48 2 7
22 -4 22 -11z m-4353 -32 c-3 -3 -9 2 -12 12 -6 14 -5 15 5 6 7 -7 10 -15 7
-18z m577 -3 c-7 -8 -35 7 -35 18 0 6 7 6 20 -2 10 -7 17 -14 15 -16z m3565
18 c0 -5 -4 -10 -10 -10 -5 0 -10 5 -10 10 0 6 5 10 10 10 6 0 10 -4 10 -10z
m-4058 -50 c20 0 32 -7 39 -23 6 -13 26 -30 45 -37 19 -8 34 -17 34 -22 0 -4
-11 -3 -25 2 -23 9 -25 8 -15 -10 13 -24 20 -25 45 -6 19 14 51 7 65 -15 7
-11 83 -15 98 -5 7 4 12 2 12 -4 0 -6 4 -8 10 -5 5 3 7 0 4 -8 -3 -9 -13 -13
-25 -10 -10 3 -19 0 -19 -5 0 -6 -10 -16 -22 -23 -18 -10 -20 -9 -15 4 4 11
-1 18 -15 23 -12 4 -30 16 -40 28 -9 11 -17 16 -18 10 0 -5 5 -15 12 -22 9 -9
8 -12 -5 -12 -9 0 -17 -4 -17 -10 0 -5 12 -10 28 -10 21 -1 24 -3 11 -10 -18
-11 -61 -2 -53 11 3 5 -5 9 -17 9 -17 0 -19 3 -10 14 9 11 6 12 -15 8 -19 -3
-25 -1 -20 6 4 8 2 10 -8 6 -20 -8 -49 10 -52 30 -2 14 0 15 12 5 8 -6 17 -10
19 -7 9 8 -6 38 -16 32 -5 -3 -9 -1 -9 5 0 5 -9 13 -20 16 -11 4 -18 10 -15
15 3 5 -4 11 -15 15 -11 3 -20 11 -20 18 0 8 3 8 12 -1 7 -7 25 -12 40 -12z
m68 -5 c0 -12 -19 -12 -23 0 -4 9 -1 12 9 8 7 -3 14 -7 14 -8z m16 -10 c-3 -9
0 -15 9 -15 8 0 15 -5 15 -11 0 -6 -7 -8 -16 -5 -9 3 -20 6 -25 6 -5 0 -4 9 3
20 15 24 23 26 14 5z m4150 0 c17 -16 14 -18 -10 -9 -9 3 -16 10 -16 15 0 13
9 11 26 -6z m-4261 -25 c17 -7 14 -9 -13 -9 -20 -1 -31 3 -27 9 7 12 13 12 40
0z m3872 -16 c-3 -3 -12 -4 -19 -1 -8 3 -5 6 6 6 11 1 17 -2 13 -5z m-3872
-14 c3 -5 2 -10 -4 -10 -5 0 -13 5 -16 10 -3 6 -2 10 4 10 5 0 13 -4 16 -10z
m371 -97 c-7 -7 -26 7 -26 19 0 6 6 6 15 -2 9 -7 13 -15 11 -17z m738 18 c3
-5 -6 -8 -20 -8 -19 0 -22 2 -13 8 18 11 26 11 33 0z m-1115 -22 c-14 -8 -29
-3 -29 11 0 4 9 6 21 3 15 -4 17 -8 8 -14z m56 11 c3 -5 -1 -10 -9 -10 -9 0
-16 5 -16 10 0 6 4 10 9 10 6 0 13 -4 16 -10z m4030 0 c-3 -5 -12 -10 -18 -10
-7 0 -6 4 3 10 19 12 23 12 15 0z m-3623 -13 c14 -11 9 -13 -35 -13 -29 0 -42
2 -29 4 12 2 22 8 22 13 0 13 22 11 42 -4z m223 -17 c-3 -5 -11 -10 -16 -10
-6 0 -7 5 -4 10 3 6 11 10 16 10 6 0 7 -4 4 -10z m795 6 c0 -11 -19 -15 -25
-6 -3 5 1 10 9 10 9 0 16 -2 16 -4z m-1152 -21 c15 3 21 2 14 -1 -6 -3 -10 -9
-8 -12 2 -4 -9 -8 -25 -9 -32 -2 -49 15 -28 28 8 5 15 4 17 -1 2 -6 16 -8 30
-5z m3467 5 c4 -6 -5 -10 -19 -10 -14 0 -26 5 -26 10 0 6 9 10 19 10 11 0 23
-4 26 -10z m-3738 -26 c-9 -9 -28 6 -21 18 4 6 10 6 17 -1 6 -6 8 -13 4 -17z
m193 16 c8 -5 11 -12 7 -17 -5 -4 -12 -1 -17 7 -8 12 -10 12 -10 1 0 -10 -3
-11 -13 -2 -8 6 -18 7 -22 3 -5 -4 -5 -1 -1 6 8 14 35 16 56 2z m3690 -10 c0
-5 -14 -10 -31 -10 -17 0 -28 -4 -24 -10 3 -6 -1 -7 -9 -4 -34 13 -12 30 42
33 12 0 22 -3 22 -9z m-2750 -39 c0 -16 -4 -17 -40 -8 -50 14 -53 28 -4 17 29
-7 34 -6 30 6 -3 9 -1 12 4 9 6 -3 10 -14 10 -24z m594 9 c12 -12 -91 -3 -112
10 -12 8 -1 9 43 5 33 -3 64 -10 69 -15z m853 -2 c-3 -8 -6 -5 -6 6 -1 11 2
17 5 13 3 -3 4 -12 1 -19z m63 12 c0 -5 -12 -10 -27 -9 -25 0 -26 1 -8 9 27
12 35 12 35 0z m-2080 -21 c0 -5 17 -9 38 -10 182 -4 179 -4 170 -19 -6 -8
-26 -16 -46 -17 -30 -1 -33 1 -17 8 16 8 14 8 -10 5 -16 -2 -37 0 -46 4 -8 5
-33 5 -55 0 -32 -8 -41 -6 -51 7 -18 23 -16 44 2 37 8 -4 15 -10 15 -15z
m1250 6 c0 -8 -4 -15 -10 -15 -5 0 -10 7 -10 15 0 8 5 15 10 15 6 0 10 -7 10
-15z m305 5 c-3 -5 -16 -10 -28 -9 -20 1 -20 2 3 9 14 4 26 8 28 9 2 1 0 -3
-3 -9z m-918 -14 c-2 -6 -14 -13 -27 -14 -20 -3 -22 -1 -12 10 14 17 44 20 39
4z m1180 8 c-3 -3 -12 -4 -19 -1 -8 3 -5 6 6 6 11 1 17 -2 13 -5z m-2057 -14
c12 -8 11 -10 -7 -10 -13 0 -23 5 -23 10 0 13 11 13 30 0z m3177 4 c-3 -3 -12
-4 -19 -1 -8 3 -5 6 6 6 11 1 17 -2 13 -5z m-2197 -24 c12 -8 10 -9 -7 -7 -12
2 -26 6 -29 10 -11 11 19 8 36 -3z m-454 -9 c-4 -5 -3 -11 1 -14 5 -2 1 -2 -7
1 -8 3 -28 4 -45 3 -39 -2 -16 14 25 17 18 1 29 -2 26 -7z m600 -2 c3 -5 -13
-9 -35 -9 -23 0 -41 4 -41 9 0 5 16 9 35 9 19 0 38 -4 41 -9z m2128 -18 c3 -5
-8 -11 -24 -13 -32 -5 -42 7 -12 15 28 8 31 7 36 -2z m-2644 -15 c0 -3 -4 -8
-10 -11 -5 -3 -10 -1 -10 4 0 6 5 11 10 11 6 0 10 -2 10 -4z m40 -16 c12 -8
11 -10 -7 -10 -13 0 -23 5 -23 10 0 13 11 13 30 0z m2445 -10 c-3 -5 -12 -7
-20 -3 -21 7 -19 13 6 13 11 0 18 -4 14 -10z m-890 -18 c-3 -3 -11 0 -18 7 -9
10 -8 11 6 5 10 -3 15 -9 12 -12z m825 6 c0 -4 -4 -9 -10 -13 -5 -3 -8 -11 -6
-18 1 -7 1 -9 -1 -4 -3 4 -18 7 -34 7 -33 0 -37 7 -12 25 18 13 63 15 63 3z
m-770 -18 c0 -5 -4 -10 -10 -10 -5 0 -10 5 -10 10 0 6 5 10 10 10 6 0 10 -4
10 -10z m380 -4 c0 -9 -40 -13 -46 -5 -3 5 6 9 20 9 14 0 26 -2 26 -4z m265
-6 c-11 -5 -29 -9 -40 -9 -17 -1 -17 1 -5 9 8 5 26 9 40 9 23 0 23 -1 5 -9z
m-455 -10 c0 -5 -2 -10 -4 -10 -3 0 -8 5 -11 10 -3 6 -1 10 4 10 6 0 11 -4 11
-10z m270 -10 c0 -5 -10 -10 -22 -10 -19 0 -20 2 -8 10 19 13 30 13 30 0z
m265 -18 c-3 -3 -11 0 -18 7 -9 10 -8 11 6 5 10 -3 15 -9 12 -12z m-840 -2 c3
-5 1 -10 -4 -10 -6 0 -11 5 -11 10 0 6 2 10 4 10 3 0 8 -4 11 -10z m110 0 c3
-5 1 -10 -4 -10 -6 0 -11 5 -11 10 0 6 2 10 4 10 3 0 8 -4 11 -10z m189 -15
c3 -8 1 -15 -4 -15 -6 0 -10 7 -10 15 0 8 2 15 4 15 2 0 6 -7 10 -15z m54 1
c-7 -8 -17 -12 -22 -9 -4 3 -2 9 5 14 22 13 31 11 17 -5z"/>
<path d="M6970 4825 c-10 -12 -10 -19 -2 -27 9 -9 15 -7 26 7 23 32 0 49 -24
20z"/>
<path d="M2876 4611 c-15 -6 -16 -9 -5 -13 8 -3 20 1 27 8 14 15 7 17 -22 5z"/>
<path d="M2836 4532 c-3 -6 -1 -14 5 -17 15 -10 25 3 12 16 -7 7 -13 7 -17 1z"/>
<path d="M2045 6390 c15 -17 15 -19 -1 -28 -10 -5 -14 -14 -9 -21 5 -9 11 -9
23 2 26 21 121 12 99 -9 -4 -4 -13 -1 -21 5 -9 8 -16 8 -20 2 -8 -12 29 -24
97 -30 4 -1 7 -8 7 -16 0 -17 17 -20 22 -4 2 6 13 3 28 -9 21 -17 22 -22 11
-36 -8 -10 -9 -16 -3 -16 6 0 9 -6 6 -14 -7 -18 15 -31 29 -17 8 8 8 11 -1 11
-7 0 -12 7 -12 16 0 14 2 14 15 0 17 -16 49 -11 38 7 -4 6 0 8 10 4 9 -3 19
-2 22 4 4 5 11 7 16 4 5 -4 19 -8 31 -10 l23 -4 -24 17 c-32 22 -121 55 -148
54 -13 0 -20 5 -17 12 7 19 -43 38 -67 26 -15 -9 -21 -7 -25 5 -3 8 -12 15
-20 15 -8 0 -14 5 -14 11 0 6 -9 9 -20 6 -11 -3 -18 -2 -15 3 3 4 -14 12 -36
18 -39 10 -40 10 -24 -8z"/>
<path d="M2196 6264 c-7 -19 1 -34 19 -34 21 0 25 25 5 38 -14 9 -19 8 -24 -4z"/>
<path d="M2240 6229 c0 -5 5 -7 10 -4 6 3 10 8 10 11 0 2 -4 4 -10 4 -5 0 -10
-5 -10 -11z"/>
<path d="M2227 6183 c-4 -3 -7 -13 -7 -22 1 -13 3 -13 11 2 11 19 8 33 -4 20z"/>
<path d="M2247 6176 c-10 -26 -9 -38 3 -31 6 4 17 1 25 -5 10 -8 15 -9 15 -2
0 6 -6 15 -14 19 -7 4 -15 15 -18 22 -3 12 -6 11 -11 -3z"/>
<path d="M2113 6168 c-5 -7 -7 -24 -3 -38 6 -23 7 -21 11 13 6 41 5 42 -8 25z"/>
<path d="M2161 6174 c-1 -18 26 -37 34 -24 3 5 0 10 -9 10 -8 0 -17 6 -19 13
-4 7 -6 8 -6 1z"/>
<path d="M2335 6159 c-7 -10 5 -39 17 -39 5 0 7 4 4 9 -7 11 22 23 35 15 5 -3
9 -1 9 4 0 12 -59 22 -65 11z"/>
<path d="M2302 6132 c-1 -24 0 -25 9 -9 7 11 7 23 2 28 -5 5 -9 -3 -11 -19z"/>
<path d="M2060 6140 c0 -5 7 -7 15 -4 8 4 15 8 15 10 0 2 -7 4 -15 4 -8 0 -15
-4 -15 -10z"/>
<path d="M2723 6133 c-24 -9 -13 -23 12 -17 18 4 32 1 46 -12 16 -14 24 -16
38 -7 12 7 22 8 28 2 16 -16 112 -28 117 -15 3 7 7 8 13 1 4 -6 21 -12 37 -13
17 -2 40 -8 53 -13 17 -6 23 -5 23 6 0 7 -5 17 -12 21 -19 12 -147 21 -141 10
4 -6 -1 -6 -13 -2 -25 10 -48 15 -109 25 -27 5 -57 11 -65 14 -8 3 -21 3 -27
0z"/>
<path d="M2160 6120 c0 -5 5 -10 10 -10 6 0 10 5 10 10 0 6 -4 10 -10 10 -5 0
-10 -4 -10 -10z"/>
<path d="M2210 6126 c0 -2 7 -7 16 -10 8 -3 12 -2 9 4 -6 10 -25 14 -25 6z"/>
<path d="M2395 6110 c-3 -5 1 -10 10 -10 9 0 13 5 10 10 -3 6 -8 10 -10 10 -2
0 -7 -4 -10 -10z"/>
<path d="M2160 6059 c-6 -11 -10 -25 -7 -32 2 -6 9 3 15 21 12 36 8 42 -8 11z"/>
<path d="M2220 6070 c-13 -8 -12 -10 3 -10 9 0 17 5 17 10 0 12 -1 12 -20 0z"/>
<path d="M3143 6061 c1 -12 6 -20 12 -18 14 5 13 29 -2 34 -7 3 -11 -4 -10
-16z"/>
<path d="M2258 6053 c7 -3 16 -2 19 1 4 3 -2 6 -13 5 -11 0 -14 -3 -6 -6z"/>
<path d="M2087 6031 c-4 -17 -3 -21 5 -13 5 5 8 16 6 23 -3 8 -7 3 -11 -10z"/>
<path d="M2115 6020 c-3 -5 1 -10 10 -10 9 0 13 5 10 10 -3 6 -8 10 -10 10 -2
0 -7 -4 -10 -10z"/>
<path d="M2176 6013 c6 -5 14 -25 18 -47 9 -46 13 -44 17 8 3 35 1 39 -21 43
-14 1 -20 0 -14 -4z"/>
<path d="M2080 5976 c0 -8 5 -18 10 -21 6 -3 10 1 10 9 0 8 -4 18 -10 21 -5 3
-10 -1 -10 -9z"/>
<path d="M2112 5970 c0 -14 2 -19 5 -12 2 6 2 18 0 25 -3 6 -5 1 -5 -13z"/>
<path d="M3735 5870 c-3 -6 1 -7 9 -4 18 7 21 14 7 14 -6 0 -13 -4 -16 -10z"/>
<path d="M2260 5860 c0 -5 5 -10 11 -10 5 0 7 5 4 10 -3 6 -8 10 -11 10 -2 0
-4 -4 -4 -10z"/>
<path d="M3553 5855 c-19 -21 -16 -27 7 -15 11 6 20 15 20 20 0 14 -13 12 -27
-5z"/>
<path d="M3930 5858 c0 -7 -15 -28 -34 -48 -35 -37 -55 -80 -37 -80 10 0 16
21 12 43 -2 13 22 7 41 -10 21 -19 25 -11 4 9 -11 12 -10 18 11 43 14 17 23
22 20 13 -4 -10 -1 -20 5 -24 6 -4 8 -3 4 4 -3 6 0 17 8 25 11 11 12 17 3 26
-15 15 -37 14 -37 -1z"/>
<path d="M6480 5810 c-6 -4 7 -7 30 -8 22 -1 40 0 40 2 0 7 -60 12 -70 6z"/>
<path d="M3700 5783 c0 -23 -3 -28 -19 -41 -13 -11 -13 -12 -1 -7 10 4 9 2 -2
-8 -10 -8 -18 -19 -18 -25 0 -16 -39 -35 -61 -29 -24 6 -34 -9 -19 -28 7 -8
10 -21 7 -30 -8 -19 9 -29 20 -12 10 16 39 28 47 19 14 -13 48 -8 57 10 6 11
8 22 5 26 -3 3 -6 -1 -6 -9 -1 -10 -3 -9 -11 4 -5 9 -14 17 -19 17 -5 0 -17
-8 -26 -17 -17 -17 -18 -17 -11 0 4 10 7 21 7 23 0 3 5 2 10 -1 6 -3 10 -2 10
4 0 6 7 8 15 5 14 -6 21 18 16 49 -1 5 3 6 9 2 6 -4 8 -15 5 -26 -10 -31 30
-24 44 9 10 22 10 25 0 15 -17 -17 -30 -16 -23 0 3 8 -4 25 -15 38 -11 13 -20
18 -21 12z m-10 -143 c0 -5 -7 -10 -15 -10 -8 0 -15 5 -15 10 0 6 7 10 15 10
8 0 15 -4 15 -10z"/>
<path d="M3655 5770 c-3 -5 -1 -10 4 -10 6 0 11 5 11 10 0 6 -2 10 -4 10 -3 0
-8 -4 -11 -10z"/>
<path d="M6735 5760 c-3 -5 -1 -10 4 -10 6 0 11 5 11 10 0 6 -2 10 -4 10 -3 0
-8 -4 -11 -10z"/>
<path d="M3819 5711 c-26 -26 -29 -38 -11 -38 18 0 52 24 52 37 0 16 -26 16
-41 1z"/>
<path d="M6660 5720 c8 -5 20 -10 25 -10 6 0 3 5 -5 10 -8 5 -19 10 -25 10 -5
0 -3 -5 5 -10z"/>
<path d="M6700 5718 c0 -2 9 -11 20 -21 11 -9 20 -13 20 -7 0 5 -9 14 -20 20
-11 6 -20 9 -20 8z"/>
<path d="M6755 5700 c3 -5 8 -10 11 -10 2 0 4 5 4 10 0 6 -5 10 -11 10 -5 0
-7 -4 -4 -10z"/>
<path d="M6801 5681 c-8 -6 -9 -11 -3 -15 6 -3 14 -1 17 5 9 14 2 20 -14 10z"/>
<path d="M6710 5651 c0 -19 5 -31 13 -31 8 0 14 8 14 17 0 10 -6 24 -14 31
-11 11 -13 8 -13 -17z"/>
<path d="M3777 5653 c8 -3 -1 -22 -27 -54 -43 -54 -105 -158 -98 -164 6 -6 68
82 68 96 0 6 4 7 10 4 5 -3 7 0 5 7 -3 8 6 25 20 38 14 13 25 29 25 37 0 7 4
13 9 13 20 0 18 26 -3 27 -11 0 -16 -1 -9 -4z"/>
<path d="M3220 5635 c-16 -19 0 -19 26 0 16 12 16 14 3 15 -9 0 -22 -7 -29
-15z"/>
<path d="M3303 5643 c4 -3 5 -9 1 -14 -3 -5 4 -9 15 -9 12 0 21 5 21 10 0 6
-4 10 -9 10 -5 0 -15 2 -23 3 -7 2 -10 2 -5 0z"/>
<path d="M3514 5634 c-26 -18 -21 -54 7 -54 24 0 26 -37 2 -43 -15 -4 -15 -5
-2 -6 9 0 22 6 29 14 7 8 9 15 4 15 -4 0 0 6 8 13 15 10 15 14 2 25 -8 7 -14
8 -14 2 0 -15 -27 -12 -33 4 -3 8 1 13 11 12 9 0 18 7 20 17 4 21 -6 21 -34 1z"/>
<path d="M1745 5620 c-3 -5 -1 -10 4 -10 6 0 11 5 11 10 0 6 -2 10 -4 10 -3 0
-8 -4 -11 -10z"/>
<path d="M3935 5567 c-57 -44 -85 -76 -153 -178 -119 -178 -145 -228 -196
-379 -73 -215 -83 -353 -47 -641 11 -84 70 -277 109 -354 61 -121 80 -142 210
-222 148 -91 189 -108 492 -206 344 -111 423 -155 616 -336 115 -108 209 -154
368 -181 237 -40 321 -35 404 22 82 56 287 226 338 279 170 178 274 330 319
464 15 44 39 139 53 210 22 115 25 151 23 310 -4 303 -42 531 -111 667 -73
144 -184 289 -243 319 -33 18 -151 39 -211 39 -22 0 -45 -9 -64 -25 -43 -36
-148 -215 -250 -425 -107 -220 -139 -264 -215 -296 -55 -23 -56 -23 -111 -6
-49 15 -66 28 -121 92 -36 40 -65 76 -65 80 0 7 -161 114 -207 139 -27 14
-185 14 -255 0 -29 -6 -137 -37 -239 -70 -103 -32 -201 -62 -218 -65 -47 -10
-146 14 -172 42 -30 32 -48 129 -48 254 -1 139 8 171 86 332 l67 138 -24 25
c-13 14 -33 25 -44 25 -12 0 -53 -24 -91 -53z"/>
<path d="M3255 5600 c3 -5 8 -10 11 -10 2 0 4 5 4 10 0 6 -5 10 -11 10 -5 0
-7 -4 -4 -10z"/>
<path d="M3227 5586 c-4 -10 -1 -13 8 -9 8 3 12 9 9 14 -7 12 -11 11 -17 -5z"/>
<path d="M3630 5585 c-1 -11 -2 -27 -1 -36 1 -9 -16 -36 -39 -60 -45 -49 -48
-54 -21 -39 11 5 39 39 63 75 30 46 47 64 58 60 12 -5 12 -4 3 6 -10 10 -17 9
-32 -5 -18 -17 -19 -17 -24 1 -4 16 -5 16 -7 -2z"/>
<path d="M6495 5590 c3 -5 8 -10 11 -10 2 0 4 5 4 10 0 6 -5 10 -11 10 -5 0
-7 -4 -4 -10z"/>
<path d="M6696 5591 c-18 -7 -18 -8 -3 -14 9 -3 17 -12 17 -19 0 -7 12 -24 25
-37 l25 -23 0 22 c0 13 8 24 20 27 24 6 16 23 -11 23 -10 0 -19 4 -19 9 0 5
-10 7 -22 3 -14 -3 -19 -2 -14 6 8 13 8 13 -18 3z m59 -31 c3 -5 -1 -10 -9
-10 -9 0 -16 5 -16 10 0 6 4 10 9 10 6 0 13 -4 16 -10z"/>
<path d="M3310 5575 c-10 -12 -10 -15 3 -15 19 0 31 16 18 24 -5 3 -14 -1 -21
-9z"/>
<path d="M3384 5575 c-4 -9 -13 -14 -20 -11 -8 3 -14 1 -14 -4 0 -6 9 -10 20
-10 11 0 20 4 20 9 0 5 7 12 16 15 8 3 12 2 9 -4 -3 -6 1 -10 10 -10 24 0 12
24 -13 28 -13 2 -25 -3 -28 -13z"/>
<path d="M6851 5581 c-10 -6 -9 -10 3 -14 8 -3 18 -2 21 3 8 13 -9 20 -24 11z"/>
<path d="M6520 5570 c0 -5 5 -10 10 -10 6 0 10 5 10 10 0 6 -4 10 -10 10 -5 0
-10 -4 -10 -10z"/>
<path d="M6565 5570 c-3 -6 1 -7 9 -4 10 4 16 1 16 -10 0 -10 5 -13 16 -9 15
6 15 8 -2 20 -21 16 -31 16 -39 3z"/>
<path d="M3160 5562 c0 -5 7 -9 15 -9 8 0 15 4 15 9 0 4 -7 8 -15 8 -8 0 -15
-4 -15 -8z"/>
<path d="M3482 5558 c-7 -7 -12 -17 -12 -24 0 -6 -12 -15 -27 -19 -16 -4 -22
-10 -15 -12 10 -4 10 -8 1 -19 -6 -8 -16 -11 -22 -7 -6 3 -7 1 -3 -5 4 -7 1
-12 -9 -12 -13 0 -14 4 -1 33 12 30 12 34 -3 34 -9 0 -22 -4 -28 -10 -8 -6
-13 -6 -13 0 0 15 -28 12 -34 -4 -3 -7 -1 -13 4 -13 17 0 11 -18 -7 -23 -17
-4 -17 -5 0 -6 10 0 20 6 23 14 4 8 12 15 20 15 10 0 13 -7 8 -25 -5 -22 -3
-25 21 -25 19 0 38 12 61 37 26 29 37 34 46 25 19 -19 30 -14 18 8 -9 16 -8
22 5 27 13 5 14 7 3 14 -17 12 -22 11 -36 -3z"/>
<path d="M3805 5561 c-3 -5 -1 -12 5 -16 5 -3 10 1 10 9 0 18 -6 21 -15 7z"/>
<path d="M3210 5524 c0 -8 5 -12 10 -9 6 4 8 11 5 16 -9 14 -15 11 -15 -7z"/>
<path d="M3250 5525 c7 -9 15 -13 17 -11 7 7 -7 26 -19 26 -6 0 -6 -6 2 -15z"/>
<path d="M3143 5515 c-9 -25 4 -29 17 -6 7 15 7 21 0 21 -6 0 -13 -7 -17 -15z"/>
<path d="M3176 5505 c-9 -26 -7 -32 5 -12 6 10 9 21 6 23 -2 3 -7 -2 -11 -11z"/>
<path d="M3280 5511 c0 -5 -3 -18 -6 -28 -5 -16 -4 -16 10 1 18 23 20 36 6 36
-5 0 -10 -4 -10 -9z"/>
<path d="M7015 5500 c-4 -6 3 -10 14 -10 25 0 27 6 6 13 -8 4 -17 2 -20 -3z"/>
<path d="M3232 5481 c-11 -7 -11 -9 2 -14 10 -4 16 -1 16 8 0 17 -1 17 -18 6z"/>
<path d="M6750 5481 c0 -5 7 -12 16 -15 24 -9 27 -7 10 9 -17 17 -26 19 -26 6z"/>
<path d="M3170 5460 c0 -5 5 -10 11 -10 5 0 7 5 4 10 -3 6 -8 10 -11 10 -2 0
-4 -4 -4 -10z"/>
<path d="M7005 5444 c-16 -15 -24 -23 -17 -19 14 8 37 -12 46 -42 5 -15 2 -25
-11 -32 -10 -6 -13 -11 -6 -11 6 0 18 7 26 15 13 12 16 10 21 -18 17 -81 18
-107 5 -108 -8 -1 -3 -4 11 -8 15 -5 24 -14 22 -23 -2 -12 3 -15 20 -10 12 3
17 7 10 10 -6 2 -12 10 -12 18 0 9 4 13 9 10 9 -6 37 21 30 29 -3 2 -17 6 -33
9 -30 5 -48 16 -27 16 8 0 11 6 7 16 -4 9 -1 23 5 31 9 10 9 17 1 25 -8 8 -13
3 -18 -17 -9 -35 -21 -15 -19 31 2 31 -2 37 -25 46 -30 10 -34 33 -9 49 8 5
10 9 4 8 -5 0 -23 -11 -40 -25z m60 -54 c-3 -5 -10 -10 -16 -10 -5 0 -9 5 -9
10 0 6 7 10 16 10 8 0 12 -4 9 -10z"/>
<path d="M3256 5451 c-24 -5 -29 -11 -32 -43 -2 -21 1 -38 6 -38 6 0 10 5 10
10 0 6 8 10 18 10 17 0 42 36 42 60 0 11 -1 11 -44 1z m14 -42 c0 -6 -4 -7
-10 -4 -5 3 -10 11 -10 16 0 6 5 7 10 4 6 -3 10 -11 10 -16z"/>
<path d="M6850 5450 c0 -5 5 -10 10 -10 6 0 10 5 10 10 0 6 -4 10 -10 10 -5 0
-10 -4 -10 -10z"/>
<path d="M3070 5440 c-12 -8 -9 -9 12 -8 15 1 24 6 22 10 -7 10 -16 10 -34 -2z"/>
<path d="M7056 5433 c-6 -14 -5 -15 5 -6 7 7 10 15 7 18 -3 3 -9 -2 -12 -12z"/>
<path d="M3125 5421 c-9 -31 -33 -47 -48 -32 -9 10 -9 12 2 9 7 -2 16 3 18 10
4 11 1 12 -18 2 -35 -18 -59 -41 -59 -56 0 -9 6 -11 18 -7 15 6 15 5 3 -10
-16 -20 -11 -30 12 -21 9 3 15 15 14 27 -1 14 5 22 22 27 23 5 70 70 51 70 -5
0 -11 -9 -15 -19z"/>
<path d="M3342 5420 c0 -14 2 -19 5 -12 2 6 2 18 0 25 -3 6 -5 1 -5 -13z"/>
<path d="M3514 5424 c9 -23 -4 -70 -15 -52 -6 8 -7 -1 -4 -25 4 -36 3 -37 -23
-31 -26 6 -26 6 -7 -9 20 -15 20 -16 1 -52 -12 -22 -25 -34 -33 -30 -10 3 -13
-1 -8 -14 4 -14 0 -23 -15 -31 -11 -6 -20 -17 -20 -25 0 -12 8 -10 35 7 19 13
30 25 24 27 -6 2 -3 11 7 22 9 10 13 19 8 19 -5 0 -4 4 1 8 16 11 50 84 47 99
-2 7 1 13 6 13 5 0 12 8 15 18 4 9 14 27 23 40 10 13 12 22 5 22 -6 0 -11 -4
-11 -10 0 -5 -4 -10 -10 -10 -5 0 -10 7 -10 15 0 8 -5 15 -11 15 -6 0 -8 -7
-5 -16z"/>
<path d="M6724 5426 c-3 -9 -11 -13 -16 -10 -6 4 -4 -4 2 -17 16 -30 24 -39
18 -19 -3 8 -1 23 4 33 5 10 7 21 4 24 -3 3 -8 -2 -12 -11z"/>
<path d="M6756 5426 c4 -11 1 -22 -7 -28 -11 -8 -11 -9 3 -5 9 4 19 -1 23 -10
4 -12 9 -13 17 -5 6 6 18 8 27 5 13 -3 12 -2 -2 7 -9 6 -14 16 -11 22 5 7 2 8
-5 4 -7 -5 -21 0 -32 10 -19 17 -20 17 -13 0z"/>
<path d="M6930 5420 c-8 -5 -10 -10 -5 -10 6 0 17 5 25 10 8 5 11 10 5 10 -5
0 -17 -5 -25 -10z"/>
<path d="M6620 5379 c0 -8 6 -21 13 -28 10 -11 8 -11 -12 -1 -13 7 -21 7 -17
2 3 -6 2 -13 -3 -17 -6 -3 -7 -13 -4 -21 5 -15 7 -15 15 0 16 28 48 20 55 -14
6 -30 17 -38 28 -20 3 5 -3 18 -15 30 -11 11 -20 24 -20 28 0 5 -9 19 -20 32
-14 16 -20 18 -20 9z"/>
<path d="M3600 5361 c-6 -12 -7 -21 -1 -21 10 0 24 30 17 37 -2 3 -9 -5 -16
-16z"/>
<path d="M7137 5373 c-4 -3 -7 -16 -7 -29 0 -12 -6 -25 -12 -27 -10 -4 -10 -6
0 -6 6 -1 12 -10 12 -21 0 -12 7 -20 16 -20 13 0 14 3 5 14 -14 17 2 31 24 22
12 -4 13 -2 2 14 -6 11 -18 20 -26 20 -8 0 -11 7 -8 20 5 21 4 24 -6 13z"/>
<path d="M6797 5363 c-4 -3 0 -14 9 -24 8 -9 16 -26 17 -38 1 -14 6 -20 15
-16 7 3 16 5 18 5 11 0 2 53 -10 66 -15 15 -38 18 -49 7z"/>
<path d="M7351 5361 c-15 -9 -10 -20 22 -58 11 -12 24 -20 28 -17 12 7 -1 34
-17 34 -8 0 -14 5 -14 10 0 6 7 10 16 10 14 0 14 3 4 15 -14 17 -20 18 -39 6z"/>
<path d="M3205 5349 c-4 -6 -5 -12 -2 -15 2 -3 7 2 10 11 7 17 1 20 -8 4z"/>
<path d="M6760 5340 c12 -8 12 -10 -5 -10 -16 0 -17 -2 -6 -9 9 -6 19 -5 26 2
13 12 2 27 -20 27 -5 0 -3 -5 5 -10z"/>
<path d="M3087 5333 c-4 -3 -7 -11 -7 -17 0 -6 5 -5 12 2 6 6 9 14 7 17 -3 3
-9 2 -12 -2z"/>
<path d="M3172 5294 c-8 -8 -11 -22 -8 -30 3 -7 1 -14 -5 -14 -15 0 -6 -34 11
-42 13 -6 13 -7 0 -7 -9 -1 -17 -11 -18 -26 -2 -33 5 -32 40 7 29 33 35 44 18
33 -5 -3 -10 3 -10 14 0 11 5 23 10 26 13 8 13 25 0 25 -6 0 -15 -10 -20 -22
-6 -17 -9 -18 -9 -6 -1 9 6 23 14 31 8 8 11 17 8 21 -9 9 -17 7 -31 -10z"/>
<path d="M3557 5292 c-10 -10 -14 -22 -10 -25 12 -13 21 -7 25 18 6 30 6 30
-15 7z"/>
<path d="M6880 5291 c0 -13 -4 -19 -10 -16 -14 8 -42 -14 -34 -27 3 -5 1 -14
-4 -21 -6 -7 -9 -29 -8 -50 2 -21 -1 -37 -7 -37 -6 0 -2 -6 8 -14 11 -8 24
-12 29 -8 5 3 7 -2 3 -11 -4 -11 -1 -17 7 -17 8 0 17 -6 19 -12 4 -8 8 -4 12
10 8 25 35 30 35 7 0 -13 3 -13 20 -3 11 7 20 21 20 31 0 12 4 16 13 11 8 -5
7 -2 -2 9 -8 10 -16 15 -19 12 -3 -3 -12 1 -20 8 -13 9 -14 9 -8 0 5 -9 1 -13
-13 -13 -11 0 -23 5 -26 10 -4 6 -11 8 -16 5 -5 -4 -9 2 -10 12 0 16 -1 16 -8
-1 -5 -14 -10 -16 -15 -8 -12 19 4 34 29 28 19 -5 24 -1 29 21 4 14 2 31 -3
36 -16 16 -13 31 3 18 9 -7 17 -8 20 -2 3 5 15 7 26 4 12 -3 20 0 20 7 0 7 6
10 13 7 8 -3 20 -1 28 3 8 6 -6 8 -36 5 -27 -1 -51 -8 -53 -14 -2 -7 -12 -3
-23 10 l-19 22 0 -22z m70 -161 c0 8 3 11 6 7 4 -3 4 -13 0 -22 -5 -15 -8 -15
-21 -1 -19 19 -20 32 0 16 12 -10 15 -10 15 0z"/>
<path d="M2616 5288 c3 -5 10 -6 15 -3 13 9 11 12 -6 12 -8 0 -12 -4 -9 -9z"/>
<path d="M6797 5268 c4 -21 3 -22 -10 -5 -8 9 -23 17 -33 17 -18 -1 -18 -1 1
-12 11 -7 26 -18 33 -25 7 -7 21 -13 30 -13 12 0 13 3 4 12 -7 7 -12 20 -12
30 0 10 -4 18 -9 18 -5 0 -7 -10 -4 -22z"/>
<path d="M7266 5265 c-3 -9 0 -15 8 -15 7 0 13 7 13 15 0 8 -4 15 -8 15 -4 0
-9 -7 -13 -15z"/>
<path d="M6685 5261 c-3 -6 1 -11 9 -11 21 0 20 -16 -1 -24 -12 -5 -13 -10 -5
-18 8 -8 15 -8 25 0 8 7 17 8 22 4 4 -4 6 1 4 12 -5 24 -45 51 -54 37z"/>
<path d="M2640 5250 c-1 -3 -3 -16 -6 -30 -3 -21 -2 -22 7 -7 6 10 8 23 5 30
-2 7 -5 10 -6 7z"/>
<path d="M3049 5213 c-13 -15 -12 -15 9 -4 23 12 28 21 13 21 -5 0 -15 -7 -22
-17z"/>
<path d="M7276 5221 c-4 -5 3 -7 14 -4 23 6 26 13 6 13 -8 0 -17 -4 -20 -9z"/>
<path d="M2597 5213 c-10 -9 -9 -23 2 -23 5 0 11 7 15 15 5 15 -5 20 -17 8z"/>
<path d="M6780 5210 c0 -5 5 -10 11 -10 5 0 7 5 4 10 -3 6 -8 10 -11 10 -2 0
-4 -4 -4 -10z"/>
<path d="M7010 5210 c8 -5 20 -10 25 -10 6 0 3 5 -5 10 -8 5 -19 10 -25 10 -5
0 -3 -5 5 -10z"/>
<path d="M7350 5201 c0 -5 5 -13 10 -16 6 -3 10 -2 10 4 0 5 -4 13 -10 16 -5
3 -10 2 -10 -4z"/>
<path d="M3550 5175 c-8 -9 -8 -15 -2 -15 12 0 26 19 19 26 -2 2 -10 -2 -17
-11z"/>
<path d="M6790 5181 c0 -6 5 -13 10 -16 6 -3 10 1 10 9 0 9 -4 16 -10 16 -5 0
-10 -4 -10 -9z"/>
<path d="M3497 5163 c-4 -3 -7 -11 -7 -17 0 -6 5 -5 12 2 6 6 9 14 7 17 -3 3
-9 2 -12 -2z"/>
<path d="M7215 5160 c3 -5 8 -10 11 -10 2 0 4 5 4 10 0 6 -5 10 -11 10 -5 0
-7 -4 -4 -10z"/>
<path d="M7185 5150 c-3 -5 -1 -10 4 -10 6 0 11 5 11 10 0 6 -2 10 -4 10 -3 0
-8 -4 -11 -10z"/>
<path d="M3403 5135 c-7 -8 -13 -19 -13 -25 0 -5 -4 -10 -10 -10 -5 0 -10 -9
-10 -19 0 -11 -4 -21 -9 -23 -12 -4 -24 -98 -13 -98 12 0 33 56 24 65 -4 3 -1
10 6 14 20 12 64 111 49 111 -7 -1 -18 -7 -24 -15z"/>
<path d="M3130 5120 c0 -5 5 -10 10 -10 6 0 10 5 10 10 0 6 -4 10 -10 10 -5 0
-10 -4 -10 -10z"/>
<path d="M6685 5120 c3 -5 8 -10 11 -10 2 0 4 5 4 10 0 6 -5 10 -11 10 -5 0
-7 -4 -4 -10z"/>
<path d="M7166 5122 c-2 -4 4 -8 15 -8 10 0 19 4 19 8 0 4 -6 8 -14 8 -8 0
-17 -4 -20 -8z"/>
<path d="M3478 5102 c20 -22 25 -21 16 2 -3 9 -12 16 -20 16 -11 0 -10 -4 4
-18z"/>
<path d="M7023 5105 c0 -8 6 -16 14 -19 15 -6 15 -4 7 18 -8 20 -21 21 -21 1z"/>
<path d="M3467 5040 c-3 -11 -1 -20 4 -20 5 0 9 2 9 4 0 2 3 11 6 20 3 9 2 16
-4 16 -5 0 -12 -9 -15 -20z"/>
<path d="M6980 5046 c0 -2 7 -9 15 -16 13 -11 14 -10 9 4 -5 14 -24 23 -24 12z"/>
<path d="M6965 5010 c4 -6 11 -8 16 -5 14 9 11 15 -7 15 -8 0 -12 -5 -9 -10z"/>
<path d="M153 4972 c-6 -24 -18 -29 -27 -9 -3 6 -5 3 -3 -7 3 -30 26 -30 37 0
6 15 8 29 5 32 -3 4 -8 -4 -12 -16z"/>
<path d="M6810 4982 c0 -5 7 -13 16 -16 10 -4 14 -1 12 6 -5 15 -28 23 -28 10z"/>
<path d="M7070 4978 c0 -4 4 -8 9 -8 6 0 12 4 15 8 3 5 -1 9 -9 9 -8 0 -15 -4
-15 -9z"/>
<path d="M6870 4961 c0 -5 5 -13 10 -16 6 -3 10 -2 10 4 0 5 -4 13 -10 16 -5
3 -10 2 -10 -4z"/>
<path d="M2910 4939 c0 -5 5 -7 10 -4 6 3 10 8 10 11 0 2 -4 4 -10 4 -5 0 -10
-5 -10 -11z"/>
<path d="M105 4920 c-3 -5 -1 -10 4 -10 6 0 11 5 11 10 0 6 -2 10 -4 10 -3 0
-8 -4 -11 -10z"/>
<path d="M2605 4850 c3 -5 10 -10 16 -10 5 0 9 5 9 10 0 6 -7 10 -16 10 -8 0
-12 -4 -9 -10z"/>
<path d="M3437 4771 c-4 -17 -3 -21 5 -13 5 5 8 16 6 23 -3 8 -7 3 -11 -10z"/>
<path d="M6850 4620 c0 -5 5 -10 10 -10 6 0 10 5 10 10 0 6 -4 10 -10 10 -5 0
-10 -4 -10 -10z"/>
<path d="M7815 4549 c-4 -6 -5 -12 -2 -15 2 -3 7 2 10 11 7 17 1 20 -8 4z"/>
<path d="M6871 4523 c0 -4 4 -17 8 -27 6 -15 9 -16 13 -5 3 8 -1 20 -8 27 -8
7 -14 9 -13 5z"/>
<path d="M7622 4348 c7 -19 35 -21 35 -3 0 8 -9 15 -19 15 -11 0 -18 -5 -16
-12z"/>
<path d="M7910 4356 c0 -2 7 -7 16 -10 8 -3 12 -2 9 4 -6 10 -25 14 -25 6z"/>
<path d="M8757 4286 c-9 -24 -10 -23 12 -29 12 -3 22 1 26 11 3 9 3 13 -1 9
-4 -4 -12 1 -19 10 -11 14 -12 14 -18 -1z"/>
<path d="M8757 4216 c-3 -8 2 -16 14 -19 14 -4 19 0 19 14 0 22 -25 26 -33 5z"/>
<path d="M6911 4194 c0 -11 3 -14 6 -6 3 7 2 16 -1 19 -3 4 -6 -2 -5 -13z"/>
<path d="M2100 4121 c0 -5 5 -13 10 -16 6 -3 10 -2 10 4 0 5 -4 13 -10 16 -5
3 -10 2 -10 -4z"/>
<path d="M7660 4120 c0 -5 7 -7 15 -4 8 4 15 8 15 10 0 2 -7 4 -15 4 -8 0 -15
-4 -15 -10z"/>
<path d="M2130 4048 c0 -16 5 -28 10 -28 6 0 10 -11 10 -24 0 -36 10 -56 29
-57 10 0 11 -2 4 -6 -9 -3 -5 -14 12 -37 14 -18 25 -38 25 -45 0 -6 7 -14 16
-18 37 -14 39 -89 2 -95 -20 -3 -20 -4 3 -23 20 -18 22 -18 16 -2 -4 11 -3 16
3 12 6 -3 10 -12 10 -19 0 -8 7 -19 15 -26 19 -16 20 -34 1 -27 -10 4 -13 1
-9 -9 3 -7 9 -14 13 -14 4 0 11 -11 14 -24 8 -32 36 -43 43 -16 3 11 9 17 14
14 5 -3 9 -1 9 4 0 12 -24 22 -51 22 -16 0 -19 4 -13 23 10 33 14 34 35 8 10
-13 19 -19 19 -14 0 5 -3 13 -7 17 -5 4 -9 12 -9 17 -1 5 -3 11 -4 14 -1 3 -3
10 -4 16 0 5 -12 19 -26 29 -14 11 -19 20 -13 20 9 0 10 7 3 24 -5 13 -6 27
-2 32 4 4 -1 4 -10 1 -15 -5 -18 -1 -18 23 0 17 -4 30 -10 30 -5 0 -16 15 -24
34 -8 18 -19 37 -25 40 -6 4 -11 16 -11 27 0 11 -7 22 -15 26 -9 3 -24 22 -35
42 -19 35 -19 36 -20 9z m180 -354 c0 -8 -4 -12 -10 -9 -5 3 -10 13 -10 21 0
8 5 12 10 9 6 -3 10 -13 10 -21z"/>
<path d="M7720 4006 c0 -9 7 -16 16 -16 9 0 14 5 12 12 -6 18 -28 21 -28 4z"/>
<path d="M10 3990 c0 -19 3 -21 12 -12 9 9 9 15 0 24 -9 9 -12 7 -12 -12z"/>
<path d="M7716 3958 c-9 -34 -7 -45 5 -25 6 9 14 15 18 13 4 -3 8 4 8 15 2 27
-23 24 -31 -3z"/>
<path d="M0 3920 c0 -5 5 -10 10 -10 6 0 10 5 10 10 0 6 -4 10 -10 10 -5 0
-10 -4 -10 -10z"/>
<path d="M9 3888 c-6 -25 -5 -58 2 -58 6 0 8 4 4 9 -3 5 -1 12 5 16 13 8 13
35 0 35 -5 0 -10 -1 -11 -2z"/>
<path d="M2740 3875 c0 -5 5 -17 10 -25 5 -8 10 -10 10 -5 0 6 -5 17 -10 25
-5 8 -10 11 -10 5z"/>
<path d="M2200 3830 c13 -23 20 -26 20 -6 0 8 -7 16 -15 20 -13 4 -14 2 -5
-14z"/>
<path d="M468 3813 c7 -3 16 -2 19 1 4 3 -2 6 -13 5 -11 0 -14 -3 -6 -6z"/>
<path d="M30 3790 c0 -5 5 -10 10 -10 6 0 10 5 10 10 0 6 -4 10 -10 10 -5 0
-10 -4 -10 -10z"/>
<path d="M2850 3739 c0 -5 5 -7 10 -4 6 3 10 8 10 11 0 2 -4 4 -10 4 -5 0 -10
-5 -10 -11z"/>
<path d="M0 3730 c0 -5 5 -10 10 -10 6 0 10 5 10 10 0 6 -4 10 -10 10 -5 0
-10 -4 -10 -10z"/>
<path d="M6890 3703 c0 -21 3 -24 9 -14 5 8 7 20 4 28 -8 21 -13 15 -13 -14z"/>
<path d="M6893 3658 c0 -7 -3 -23 -7 -35 -5 -14 -3 -23 3 -23 6 0 11 9 11 19
0 11 3 26 6 35 3 9 2 16 -3 16 -5 0 -10 -6 -10 -12z"/>
<path d="M2489 3629 c-8 -5 -9 -9 -4 -10 6 -1 15 -2 22 -3 6 0 21 -13 33 -28
12 -16 26 -28 31 -28 19 0 8 18 -29 47 -27 22 -43 29 -53 22z"/>
<path d="M8776 3604 c-8 -21 -8 -24 3 -24 12 0 22 28 12 35 -5 3 -12 -2 -15
-11z"/>
<path d="M2368 3588 c-19 -34 -18 -57 3 -63 10 -4 23 -4 27 -1 5 3 17 0 27 -7
16 -12 16 -15 2 -29 -14 -14 -13 -18 12 -42 27 -26 48 -35 35 -15 -4 7 1 10
11 7 23 -4 32 -28 12 -28 -8 0 -17 -7 -20 -14 -4 -9 -1 -13 7 -10 16 6 51 -25
60 -52 4 -12 14 -20 26 -19 31 2 31 9 -1 30 -19 13 -28 26 -25 38 2 10 -2 17
-10 17 -8 0 -14 8 -14 18 0 10 -17 29 -39 42 -27 17 -39 31 -37 44 1 10 -10
32 -25 49 -15 16 -25 36 -22 43 9 23 -15 16 -29 -8z m102 -138 c0 -5 -4 -10
-9 -10 -6 0 -13 5 -16 10 -3 6 1 10 9 10 9 0 16 -4 16 -10z"/>
<path d="M6879 3588 c0 -2 -2 -14 -3 -28 -1 -14 -6 -35 -10 -47 -4 -14 -3 -23
2 -23 6 0 8 -10 5 -22 -5 -18 -3 -21 7 -11 15 14 23 133 9 133 -5 0 -9 -1 -10
-2z"/>
<path d="M420 3570 c0 -5 5 -10 10 -10 6 0 10 5 10 10 0 6 -4 10 -10 10 -5 0
-10 -4 -10 -10z"/>
<path d="M8750 3555 c-11 -13 -11 -18 0 -28 10 -9 13 -9 17 1 3 6 11 12 20 12
19 0 11 24 -9 28 -8 2 -21 -4 -28 -13z"/>
<path d="M2397 3499 c7 -7 15 -10 18 -7 3 3 -2 9 -12 12 -14 6 -15 5 -6 -5z"/>
<path d="M8750 3497 c0 -4 -12 -19 -26 -32 -23 -22 -24 -24 -7 -34 17 -10 17
-10 -1 -11 -15 0 -16 -3 -6 -15 11 -13 8 -14 -20 -8 -24 4 -31 3 -26 -6 4 -6
11 -9 16 -6 4 3 11 -11 15 -31 l6 -36 25 27 c16 17 24 38 24 60 0 22 6 38 18
44 13 8 14 12 5 22 -10 10 -9 15 3 24 13 9 12 11 -5 11 -12 0 -21 -4 -21 -9z"/>
<path d="M8669 3345 c-1 -11 -2 -26 -2 -32 1 -7 -10 -13 -23 -13 -38 0 -37
-17 2 -24 19 -4 41 -9 48 -12 7 -3 12 6 14 21 1 15 -2 23 -8 20 -5 -3 -14 9
-19 27 -7 24 -10 27 -12 13z"/>
<path d="M2670 3250 c0 -5 5 -10 10 -10 6 0 10 5 10 10 0 6 -4 10 -10 10 -5 0
-10 -4 -10 -10z"/>
<path d="M8601 3251 c-9 -6 -3 -10 20 -13 19 -3 43 -9 54 -13 17 -8 18 -7 5 7
-8 9 -18 14 -22 12 -4 -2 -9 0 -13 6 -8 12 -25 13 -44 1z"/>
<path d="M8607 3220 c-21 -4 -46 -14 -54 -23 -15 -15 -14 -16 5 -10 12 3 22 8
22 12 0 4 9 7 20 7 11 0 20 -6 20 -13 0 -7 -4 -13 -10 -13 -5 0 -10 -7 -10
-15 0 -8 -8 -23 -17 -33 -55 -57 -83 -116 -58 -126 8 -3 15 -10 15 -16 0 -6
-4 -9 -9 -6 -4 3 -13 -5 -19 -19 -9 -20 -8 -24 6 -28 15 -4 14 -5 -2 -6 -14
-1 -16 -4 -7 -15 8 -10 8 -20 -2 -40 -14 -26 -30 -26 -20 0 3 8 -1 21 -8 30
-20 24 -43 -54 -30 -101 6 -24 6 -35 -1 -35 -6 0 -5 -6 2 -15 9 -11 16 -12 25
-5 9 8 14 7 17 -1 3 -8 11 -10 24 -5 12 6 15 10 6 13 -6 3 -10 9 -6 14 3 5 -4
9 -15 9 -12 0 -21 5 -21 10 0 6 3 10 8 10 4 0 15 20 25 45 11 25 23 45 29 45
5 0 7 4 4 9 -9 15 5 41 22 41 13 0 12 3 -4 21 -16 17 -16 22 -4 29 8 6 22 10
31 10 12 0 16 8 15 25 -1 26 -26 36 -26 10 0 -18 -36 -39 -45 -25 -3 5 1 10
10 10 9 0 14 4 11 9 -3 5 11 19 32 31 21 13 31 25 24 27 -6 3 -10 9 -7 13 3 5
12 7 19 4 20 -8 27 23 10 41 -17 16 -11 35 12 35 14 0 20 36 7 43 -5 2 -25 0
-46 -3z"/>
<path d="M2650 3196 c0 -2 7 -9 15 -16 9 -7 15 -8 15 -2 0 5 -7 12 -15 16 -8
3 -15 4 -15 2z"/>
<path d="M55 3070 c4 -6 11 -8 16 -5 14 9 11 15 -7 15 -8 0 -12 -5 -9 -10z"/>
<path d="M75 3040 c-3 -5 -1 -10 4 -10 6 0 11 5 11 10 0 6 -2 10 -4 10 -3 0
-8 -4 -11 -10z"/>
<path d="M8350 3034 c0 -8 5 -12 10 -9 6 3 10 10 10 16 0 5 -4 9 -10 9 -5 0
-10 -7 -10 -16z"/>
<path d="M7180 2977 c0 -7 -24 -20 -52 -29 -45 -15 -31 -18 23 -6 33 8 66 48
39 48 -5 0 -10 -6 -10 -13z"/>
<path d="M8330 2966 c0 -9 -7 -16 -15 -16 -8 0 -12 -6 -9 -14 3 -8 12 -12 19
-10 7 3 20 -4 28 -16 8 -12 18 -17 21 -12 3 6 0 12 -8 15 -8 3 -12 14 -10 25
3 10 -2 24 -10 31 -13 11 -16 11 -16 -3z"/>
<path d="M263 2936 c-6 -8 -9 -16 -6 -20 3 -3 0 -12 -7 -21 -11 -13 -10 -15 1
-10 8 3 20 19 26 35 12 32 6 38 -14 16z"/>
<path d="M397 2943 c-3 -5 -1 -17 4 -28 4 -11 8 -15 9 -10 1 6 3 18 5 28 3 17
-10 24 -18 10z"/>
<path d="M6978 2923 c7 -3 16 -2 19 1 4 3 -2 6 -13 5 -11 0 -14 -3 -6 -6z"/>
<path d="M8305 2900 c3 -5 1 -10 -5 -10 -16 0 -36 -22 -45 -50 -7 -22 -3 -20
28 13 20 20 42 37 49 37 10 0 9 3 -2 10 -20 13 -33 13 -25 0z"/>
<path d="M8408 2903 c7 -3 16 -2 19 1 4 3 -2 6 -13 5 -11 0 -14 -3 -6 -6z"/>
<path d="M389 2888 c0 -2 -2 -11 -4 -21 -3 -15 -1 -16 11 -6 16 13 19 29 4 29
-5 0 -10 -1 -11 -2z"/>
<path d="M3378 2873 c7 -3 16 -2 19 1 4 3 -2 6 -13 5 -11 0 -14 -3 -6 -6z"/>
<path d="M240 2850 c0 -19 11 -26 23 -14 8 8 -3 34 -14 34 -5 0 -9 -9 -9 -20z"/>
<path d="M7030 2860 c-7 -4 3 -9 24 -12 20 -2 36 -1 36 3 0 10 -47 17 -60 9z"/>
<path d="M6976 2851 c-4 -5 -2 -12 3 -15 5 -4 12 -2 15 3 4 5 2 12 -3 15 -5 4
-12 2 -15 -3z"/>
<path d="M8395 2844 l-30 -14 29 3 c17 2 32 9 34 15 4 14 5 14 -33 -4z"/>
<path d="M3473 2843 c9 -2 23 -2 30 0 6 3 -1 5 -18 5 -16 0 -22 -2 -12 -5z"/>
<path d="M3635 2834 c-12 -13 -30 -15 -75 -12 -33 2 -60 1 -60 -4 0 -8 11 -9
105 -9 72 0 72 0 55 11 -13 8 -13 10 2 10 9 0 20 5 23 10 10 17 -32 11 -50 -6z"/>
<path d="M6863 2815 c-29 -27 -31 -32 -15 -41 20 -12 84 -3 64 9 -7 5 -22 5
-35 1 -19 -6 -20 -5 -8 9 7 9 16 15 20 13 4 -3 13 -1 21 4 13 8 13 11 0 22
-13 12 -20 9 -47 -17z m47 11 c0 -3 -4 -8 -10 -11 -5 -3 -10 -1 -10 4 0 6 5
11 10 11 6 0 10 -2 10 -4z"/>
<path d="M6930 2830 c0 -11 5 -20 11 -20 6 0 8 7 5 16 -3 8 -2 12 4 9 6 -3 10
-1 10 4 0 6 -7 11 -15 11 -8 0 -15 -9 -15 -20z"/>
<path d="M8585 2820 c-3 -5 -1 -10 4 -10 6 0 11 5 11 10 0 6 -2 10 -4 10 -3 0
-8 -4 -11 -10z"/>
<path d="M3455 2810 c-3 -5 -1 -10 4 -10 6 0 11 5 11 10 0 6 -2 10 -4 10 -3 0
-8 -4 -11 -10z"/>
<path d="M8525 2810 c-3 -5 3 -10 14 -10 12 0 21 5 21 10 0 6 -6 10 -14 10 -8
0 -18 -4 -21 -10z"/>
<path d="M6587 2784 c3 -7 9 -14 14 -14 14 0 10 17 -5 23 -10 4 -13 1 -9 -9z"/>
<path d="M8216 2791 c-11 -17 25 -21 47 -6 21 15 21 15 -10 15 -18 0 -34 -4
-37 -9z"/>
<path d="M8387 2770 c-5 -26 3 -44 10 -22 3 6 11 12 19 12 8 0 14 8 14 18 0
29 -38 22 -43 -8z"/>
<path d="M235 2780 c-8 -13 5 -13 25 0 13 8 13 10 -2 10 -9 0 -20 -4 -23 -10z"/>
<path d="M3536 2780 c6 -6 21 -6 39 -1 30 9 30 9 -9 10 -26 1 -37 -2 -30 -9z"/>
<path d="M3628 2783 c7 -3 16 -2 19 1 4 3 -2 6 -13 5 -11 0 -14 -3 -6 -6z"/>
<path d="M8313 2770 c-3 -10 -16 -26 -29 -35 -15 -10 -24 -25 -24 -42 0 -25 1
-25 18 -10 10 10 25 17 33 17 12 0 12 2 -1 10 -13 8 -13 9 0 14 45 14 45 14
27 15 -13 1 -16 7 -11 26 3 14 3 25 -1 25 -4 0 -9 -9 -12 -20z"/>
<path d="M3378 2773 c7 -3 16 -2 19 1 4 3 -2 6 -13 5 -11 0 -14 -3 -6 -6z"/>
<path d="M6785 2770 c-3 -5 1 -10 10 -10 9 0 13 5 10 10 -3 6 -8 10 -10 10 -2
0 -7 -4 -10 -10z"/>
<path d="M2 2759 c2 -6 8 -10 13 -10 5 0 11 4 13 10 2 6 -4 11 -13 11 -9 0
-15 -5 -13 -11z"/>
<path d="M6533 2763 c9 -2 25 -2 35 0 9 3 1 5 -18 5 -19 0 -27 -2 -17 -5z"/>
<path d="M4120 2740 c-13 -8 -12 -10 3 -10 9 0 17 5 17 10 0 12 -1 12 -20 0z"/>
<path d="M4555 2740 c-3 -5 -1 -10 4 -10 6 0 11 5 11 10 0 6 -2 10 -4 10 -3 0
-8 -4 -11 -10z"/>
<path d="M4730 2740 c0 -5 5 -10 11 -10 5 0 7 5 4 10 -3 6 -8 10 -11 10 -2 0
-4 -4 -4 -10z"/>
<path d="M5080 2726 c0 -9 5 -16 10 -16 6 0 10 4 10 9 0 6 -4 13 -10 16 -5 3
-10 -1 -10 -9z"/>
<path d="M6130 2726 c0 -9 7 -12 20 -9 11 3 17 9 14 14 -8 14 -34 10 -34 -5z"/>
<path d="M6080 2720 c0 -13 11 -13 30 0 12 8 11 10 -7 10 -13 0 -23 -4 -23
-10z"/>
<path d="M4800 2710 c-12 -8 -12 -10 5 -9 11 0 29 4 40 9 18 8 18 9 -5 9 -14
0 -32 -4 -40 -9z"/>
<path d="M8400 2702 c0 -11 -9 -27 -20 -37 -15 -13 -17 -21 -9 -31 8 -10 6
-16 -9 -25 -13 -8 -17 -19 -14 -32 3 -14 1 -18 -6 -13 -17 10 -27 -21 -12 -39
18 -22 25 -19 39 20 7 19 18 36 24 36 7 1 17 2 22 4 6 1 16 3 23 3 6 1 12 7
12 13 0 6 -11 8 -27 5 -25 -6 -28 -3 -29 19 -1 14 2 25 8 25 5 0 6 -4 3 -10
-8 -12 5 -13 24 -1 9 6 10 11 2 15 -16 10 -13 26 5 26 8 0 12 5 8 11 -5 8 -1
8 14 0 27 -14 29 -14 35 4 4 8 2 17 -4 20 -5 4 -9 3 -8 -2 3 -20 -2 -23 -17
-9 -22 23 -64 21 -64 -2z"/>
<path d="M5340 2706 c0 -2 11 -6 25 -8 13 -3 22 -1 19 3 -5 9 -44 13 -44 5z"/>
<path d="M6060 2690 c0 -5 5 -10 11 -10 5 0 7 5 4 10 -3 6 -8 10 -11 10 -2 0
-4 -4 -4 -10z"/>
<path d="M200 2655 c0 -22 -6 -37 -17 -44 -15 -8 -15 -11 -3 -26 12 -14 12
-18 -1 -26 -12 -7 -11 -9 3 -9 16 0 35 49 30 76 -1 6 5 17 13 24 12 10 13 16
4 26 -19 23 -29 16 -29 -21z"/>
<path d="M8 2648 c14 -18 47 -13 35 5 -5 8 -8 7 -11 -1 -3 -10 -7 -10 -20 0
-15 12 -15 11 -4 -4z"/>
<path d="M8230 2650 c0 -6 7 -10 15 -10 8 0 15 2 15 4 0 2 -7 6 -15 10 -8 3
-15 1 -15 -4z"/>
<path d="M8126 2641 c-3 -5 2 -8 12 -7 12 1 16 -5 14 -20 -2 -13 4 -24 13 -28
11 -4 14 -2 9 7 -4 6 4 2 16 -10 20 -18 21 -24 10 -37 -16 -20 -31 -21 -24 -1
4 8 2 15 -3 15 -18 0 -22 -13 -12 -32 9 -16 7 -19 -8 -16 -10 2 -18 -3 -18
-11 0 -18 43 -22 49 -4 3 7 11 13 19 13 12 0 57 51 57 65 0 12 -45 44 -62 45
-10 0 -18 7 -18 15 0 16 -45 21 -54 6z"/>
<path d="M78 2608 c15 -19 12 -41 -7 -49 -11 -4 -9 -7 7 -11 19 -5 21 -2 19
30 -1 21 -8 37 -17 40 -12 4 -13 3 -2 -10z"/>
<path d="M8106 2554 c-2 -6 -2 -15 1 -18 7 -6 33 12 33 24 0 12 -29 7 -34 -6z"/>
<path d="M175 2500 c-3 -5 -1 -10 4 -10 6 0 11 5 11 10 0 6 -2 10 -4 10 -3 0
-8 -4 -11 -10z"/>
<path d="M8285 2489 c-10 -15 1 -22 24 -14 12 3 19 11 16 16 -8 12 -32 11 -40
-2z"/>
<path d="M8434 2486 c-3 -9 -11 -15 -18 -14 -18 4 -56 -26 -56 -44 0 -9 -10
-27 -22 -39 -21 -19 -21 -20 -3 -11 12 6 27 22 35 36 7 14 17 26 22 26 5 0 6
-6 2 -12 -5 -9 -2 -8 9 1 10 8 15 16 13 19 -3 2 5 13 17 22 12 10 19 22 15 26
-4 4 -10 -1 -14 -10z"/>
<path d="M8078 2482 c-19 -4 -24 -27 -9 -37 6 -3 15 4 21 16 13 24 12 27 -12
21z"/>
<path d="M1960 2460 c-12 -8 -9 -10 13 -10 16 0 26 4 22 10 -8 12 -16 12 -35
0z"/>
<path d="M175 2451 c-3 -5 -1 -12 5 -16 12 -7 30 2 30 16 0 12 -27 12 -35 0z"/>
<path d="M1900 2450 c-8 -5 -25 -10 -37 -10 -13 0 -23 -4 -23 -8 0 -11 84 -9
92 3 15 21 -7 31 -32 15z"/>
<path d="M2616 2445 c-3 -9 0 -15 9 -15 16 0 20 16 6 24 -5 3 -11 -1 -15 -9z"/>
<path d="M8087 2438 c-11 -11 -27 -18 -37 -15 -13 3 -19 -2 -23 -22 -7 -34 -3
-37 22 -12 11 11 31 23 44 26 13 4 23 14 24 26 2 24 -7 23 -30 -3z"/>
<path d="M1798 2443 c6 -2 18 -2 25 0 6 3 1 5 -13 5 -14 0 -19 -2 -12 -5z"/>
<path d="M8157 2410 c18 -19 25 -22 35 -12 9 9 9 15 -1 25 -7 6 -12 8 -11 2 5
-24 -2 -27 -22 -9 l-23 18 22 -24z"/>
<path d="M150 2408 l-25 -11 23 -5 c28 -4 52 4 52 18 0 13 -18 12 -50 -2z"/>
<path d="M304 2404 c3 -9 6 -18 6 -20 0 -2 4 -4 9 -4 5 0 7 9 4 20 -3 11 -10
20 -15 20 -6 0 -7 -7 -4 -16z"/>
<path d="M1657 2402 c-9 -2 -15 -8 -12 -13 8 -12 45 -12 45 0 0 13 -12 18 -33
13z"/>
<path d="M1383 2383 c9 -2 23 -2 30 0 6 3 -1 5 -18 5 -16 0 -22 -2 -12 -5z"/>
<path d="M1330 2365 c-8 -9 -8 -15 -2 -15 12 0 26 19 19 26 -2 2 -10 -2 -17
-11z"/>
<path d="M2278 2373 c7 -3 16 -2 19 1 4 3 -2 6 -13 5 -11 0 -14 -3 -6 -6z"/>
<path d="M8046 2364 c-3 -8 -19 -14 -35 -14 -30 0 -50 -28 -36 -50 9 -14 25
-12 25 3 0 13 29 35 70 53 24 10 25 10 3 16 -14 4 -24 1 -27 -8z"/>
<path d="M8370 2370 c0 -5 5 -10 11 -10 5 0 7 5 4 10 -3 6 -8 10 -11 10 -2 0
-4 -4 -4 -10z"/>
<path d="M177 2335 c-4 -8 -2 -17 3 -20 6 -4 10 3 10 14 0 25 -6 27 -13 6z"/>
<path d="M8306 2333 c-6 -14 -5 -15 5 -6 7 7 10 15 7 18 -3 3 -9 -2 -12 -12z"/>
<path d="M8340 2329 c0 -5 5 -7 10 -4 6 3 10 8 10 11 0 2 -4 4 -10 4 -5 0 -10
-5 -10 -11z"/>
<path d="M180 2285 c0 -8 5 -15 10 -15 6 0 10 7 10 15 0 8 -4 15 -10 15 -5 0
-10 -7 -10 -15z"/>
<path d="M7700 2269 c0 -5 5 -7 10 -4 6 3 10 8 10 11 0 2 -4 4 -10 4 -5 0 -10
-5 -10 -11z"/>
<path d="M7741 2241 c-9 -16 -7 -17 14 -13 15 2 22 9 18 18 -7 19 -20 17 -32
-5z"/>
<path d="M8084 2251 c4 -6 2 -11 -3 -11 -6 0 -11 -5 -11 -11 0 -6 8 -9 18 -7
20 4 23 29 3 36 -8 3 -11 0 -7 -7z"/>
<path d="M7805 2240 c-3 -5 -2 -10 4 -10 5 0 13 5 16 10 3 6 2 10 -4 10 -5 0
-13 -4 -16 -10z"/>
<path d="M7920 2230 c0 -5 -7 -10 -15 -10 -8 0 -15 -5 -15 -11 0 -5 -4 -8 -9
-4 -11 6 -81 -33 -81 -46 0 -13 12 -11 34 6 11 8 22 11 25 6 3 -5 26 9 50 30
28 25 38 39 27 39 -9 0 -16 -4 -16 -10z"/>
<path d="M8025 2190 c-3 -5 -1 -10 4 -10 6 0 11 5 11 10 0 6 -2 10 -4 10 -3 0
-8 -4 -11 -10z"/>
<path d="M167 2173 c-4 -3 -7 -11 -7 -17 0 -6 5 -5 12 2 6 6 9 14 7 17 -3 3
-9 2 -12 -2z"/>
<path d="M8218 2173 c7 -3 16 -2 19 1 4 3 -2 6 -13 5 -11 0 -14 -3 -6 -6z"/>
<path d="M7990 2153 c0 -9 -7 -24 -14 -32 -9 -10 -12 -22 -7 -30 7 -10 10 -8
16 8 4 15 12 20 22 17 12 -5 14 -1 10 14 -3 11 -1 20 5 20 5 0 6 5 3 10 -10
16 -35 11 -35 -7z"/>
<path d="M8245 2160 c-3 -5 -1 -10 4 -10 6 0 11 5 11 10 0 6 -2 10 -4 10 -3 0
-8 -4 -11 -10z"/>
<path d="M8277 2145 c-4 -8 -2 -17 3 -20 6 -4 10 -4 10 -1 0 2 3 11 6 20 3 9
2 16 -4 16 -5 0 -12 -7 -15 -15z"/>
<path d="M8172 2120 c-18 -29 -15 -36 8 -15 20 18 26 35 12 35 -4 0 -13 -9
-20 -20z"/>
<path d="M8217 2133 c-4 -3 -7 -13 -7 -20 0 -12 3 -12 15 1 8 8 15 17 15 20 0
8 -15 7 -23 -1z"/>
<path d="M8180 2085 c-7 -8 -18 -15 -25 -15 -12 0 -35 -41 -35 -64 0 -24 31
-28 37 -6 3 11 10 20 15 20 5 0 6 5 2 12 -4 6 -3 8 3 5 6 -4 18 4 27 18 20 31
21 41 1 25 -13 -11 -14 -10 -9 4 8 20 0 21 -16 1z"/>
<path d="M7915 2069 c-11 -17 1 -21 15 -4 8 9 8 15 2 15 -6 0 -14 -5 -17 -11z"/>
<path d="M270 2035 c-10 -13 -9 -15 9 -15 12 0 21 6 21 15 0 8 -4 15 -9 15 -5
0 -14 -7 -21 -15z"/>
<path d="M1915 2040 c-4 -6 5 -10 20 -10 15 0 24 4 20 10 -3 6 -12 10 -20 10
-8 0 -17 -4 -20 -10z"/>
<path d="M7870 2046 c0 -2 7 -7 16 -10 8 -3 12 -2 9 4 -6 10 -25 14 -25 6z"/>
<path d="M151 2019 c-5 -16 -5 -26 3 -31 7 -5 6 -8 -3 -8 -8 0 -12 -2 -9 -5
12 -12 34 7 33 30 -2 35 -13 42 -24 14z"/>
<path d="M7767 1994 c2 -6 -9 -11 -27 -12 -17 0 -38 -6 -45 -12 -8 -7 -18 -9
-23 -6 -5 3 -19 -2 -31 -10 -21 -15 -21 -17 -5 -35 18 -21 6 -27 -14 -7 -9 9
-12 9 -12 0 0 -7 -8 -12 -17 -12 -11 0 -14 3 -7 8 13 8 28 45 15 38 -5 -3 -16
-21 -25 -41 -11 -22 -24 -35 -36 -35 -11 0 -20 -4 -20 -9 0 -5 -9 -11 -20 -14
-11 -3 -20 -11 -20 -17 0 -9 14 -11 50 -7 33 4 50 2 50 -5 0 -14 69 -3 84 13
8 9 4 10 -17 5 -20 -5 -29 -2 -33 9 -8 21 3 32 17 18 14 -14 39 -6 39 13 0 7
14 21 31 29 23 12 28 19 20 29 -16 19 7 38 31 25 15 -8 24 -7 39 7 26 23 24
39 -5 39 -13 0 -22 -5 -19 -11z m23 -19 c-7 -8 -17 -15 -22 -15 -11 0 14 29
26 30 5 0 3 -7 -4 -15z m-195 -105 c3 -5 1 -10 -4 -10 -6 0 -11 5 -11 10 0 6
2 10 4 10 3 0 8 -4 11 -10z"/>
<path d="M7840 1999 c0 -5 -5 -7 -12 -3 -7 4 -8 3 -4 -4 4 -6 13 -9 21 -6 8 4
12 10 9 15 -7 12 -14 11 -14 -2z"/>
<path d="M7548 1980 c-10 -9 -18 -21 -18 -26 0 -5 4 -4 8 2 4 6 15 15 26 21
10 6 15 13 10 15 -5 3 -17 -2 -26 -12z"/>
<path d="M7445 1980 c3 -5 8 -10 11 -10 2 0 4 5 4 10 0 6 -5 10 -11 10 -5 0
-7 -4 -4 -10z"/>
<path d="M8091 1949 c-12 -16 -19 -34 -16 -39 4 -6 -1 -13 -9 -16 -9 -3 -16
-11 -16 -17 0 -5 -12 -25 -26 -44 -14 -19 -24 -37 -21 -40 9 -9 97 87 97 107
0 10 11 27 25 37 24 17 24 19 6 30 -16 10 -22 7 -40 -18z"/>
<path d="M8200 1970 c0 -6 7 -10 15 -10 8 0 15 2 15 4 0 2 -7 6 -15 10 -8 3
-15 1 -15 -4z"/>
<path d="M26 1944 c-8 -22 -1 -28 19 -17 14 8 14 11 2 22 -12 9 -16 8 -21 -5z"/>
<path d="M126 1928 c-8 -31 -7 -48 2 -48 10 0 32 51 26 61 -9 16 -22 10 -28
-13z"/>
<path d="M2420 1939 c0 -5 9 -9 20 -9 11 0 20 2 20 4 0 2 -9 6 -20 9 -11 3
-20 1 -20 -4z"/>
<path d="M7472 1906 c4 -22 2 -26 -17 -26 -11 0 -43 -11 -71 -25 -27 -15 -40
-23 -29 -19 11 3 27 7 35 8 8 0 18 5 21 10 4 4 19 9 35 11 16 1 37 5 47 10 17
7 17 8 0 21 -10 8 -13 13 -8 12 6 -2 11 2 13 7 2 6 -5 12 -14 13 -13 3 -16 -1
-12 -22z"/>
<path d="M267 1893 c-4 -3 -7 -11 -7 -17 0 -6 5 -5 12 2 6 6 9 14 7 17 -3 3
-9 2 -12 -2z"/>
<path d="M1794 1893 c11 -11 48 -14 41 -3 -3 5 -16 10 -27 10 -12 0 -18 -3
-14 -7z"/>
<path d="M1868 1893 c7 -3 16 -2 19 1 4 3 -2 6 -13 5 -11 0 -14 -3 -6 -6z"/>
<path d="M255 1850 c-3 -5 -1 -10 4 -10 6 0 11 5 11 10 0 6 -2 10 -4 10 -3 0
-8 -4 -11 -10z"/>
<path d="M2098 1853 c6 -2 18 -2 25 0 6 3 1 5 -13 5 -14 0 -19 -2 -12 -5z"/>
<path d="M50 1831 c0 -5 7 -12 16 -15 24 -9 28 -7 14 9 -14 17 -30 20 -30 6z"/>
<path d="M236 1816 c3 -9 2 -16 -3 -16 -6 0 -15 -18 -22 -41 -7 -22 -18 -42
-25 -45 -8 -3 -11 -15 -8 -30 6 -32 20 -31 17 1 -2 16 2 25 11 25 27 0 57 101
33 115 -5 4 -6 -1 -3 -9z"/>
<path d="M125 1804 c-9 -9 -14 -23 -11 -30 3 -7 1 -16 -5 -19 -5 -4 -7 -11 -4
-16 4 -5 3 -18 0 -29 -5 -16 -10 -18 -25 -10 -22 12 -38 -6 -21 -23 8 -8 11
-8 11 0 0 6 9 9 20 6 22 -6 22 -30 1 -25 -7 1 -10 -2 -6 -8 18 -30 72 4 60 38
-3 12 1 26 9 35 14 13 13 15 -5 20 -15 4 -19 11 -15 33 3 15 11 31 18 36 9 5
9 8 1 8 -6 0 -19 -7 -28 -16z"/>
<path d="M7350 1810 c0 -6 7 -13 15 -16 27 -11 16 -27 -15 -21 -19 4 -32 2
-37 -7 -9 -16 -52 -24 -70 -13 -7 5 -14 5 -15 0 0 -4 -2 -12 -3 -18 -2 -5 -3
-16 -4 -22 0 -7 -11 -13 -23 -13 -19 0 -20 1 -5 18 14 16 13 19 -9 35 -17 12
-24 14 -22 5 2 -7 -3 -12 -9 -10 -8 1 -13 -8 -13 -22 0 -14 6 -26 13 -29 6 -2
4 -3 -5 -2 -21 4 -21 3 -6 -30 13 -28 26 -32 34 -10 4 8 11 15 17 15 5 0 3 -8
-6 -18 -21 -23 -21 -32 -3 -32 8 0 16 7 20 15 9 24 33 17 50 -15 13 -27 9 -40
-7 -24 -3 3 -28 7 -56 8 -35 1 -52 -3 -56 -12 -4 -10 -16 -13 -38 -9 -20 3
-38 -1 -48 -10 -10 -8 -40 -20 -69 -28 -29 -8 -55 -16 -58 -19 -5 -6 45 -10
86 -6 12 1 22 -4 22 -10 0 -8 16 -10 49 -7 28 3 53 1 60 -6 6 -6 14 -8 17 -4
9 9 -15 37 -32 37 -23 0 -16 20 12 30 31 12 84 13 84 2 0 -4 -5 -13 -12 -20
-8 -8 -8 -12 -1 -12 6 0 16 7 23 15 7 8 18 15 26 15 7 0 17 6 21 13 4 7 22 19
40 26 31 13 45 30 48 62 2 12 -4 15 -19 11 -18 -5 -19 -3 -9 10 7 8 10 18 6
21 -3 4 -1 7 5 7 6 0 14 -5 18 -11 3 -6 15 -9 25 -6 12 3 19 0 19 -9 0 -12 4
-13 23 -3 12 7 29 20 37 29 8 9 25 20 38 24 25 8 30 36 6 36 -8 0 -12 5 -9 10
4 6 -8 10 -27 10 -19 0 -43 7 -54 15 -22 17 -74 20 -74 5z m77 -83 c2 -24 0
-25 -13 -13 -17 18 -19 49 -2 44 7 -3 14 -17 15 -31z m-52 3 c3 -5 -1 -10 -9
-10 -8 0 -18 5 -21 10 -3 6 1 10 9 10 8 0 18 -4 21 -10z m-61 -22 c19 -17 18
-18 -32 -17 -56 2 -61 5 -36 24 23 17 45 15 68 -7z m-84 -38 c0 -5 -4 -10 -10
-10 -5 0 -10 5 -10 10 0 6 5 10 10 10 6 0 10 -4 10 -10z"/>
<path d="M7264 1794 l-29 -12 27 -7 c19 -5 32 -2 47 12 19 17 19 19 2 19 -10
0 -31 -6 -47 -12z"/>
<path d="M7935 1799 c-4 -6 -5 -12 -2 -15 2 -3 7 2 10 11 7 17 1 20 -8 4z"/>
<path d="M7177 1794 c-12 -13 3 -21 29 -16 19 3 22 7 12 13 -16 10 -32 11 -41
3z"/>
<path d="M1228 1783 c7 -3 16 -2 19 1 4 3 -2 6 -13 5 -11 0 -14 -3 -6 -6z"/>
<path d="M1296 1755 c-3 -8 -1 -15 3 -15 5 0 11 7 15 15 3 8 1 15 -3 15 -5 0
-11 -7 -15 -15z"/>
<path d="M8010 1760 c0 -5 -7 -10 -15 -10 -9 0 -15 -10 -16 -22 0 -13 -3 -17
-6 -10 -4 10 -10 9 -25 -4 -16 -16 -22 -16 -41 -5 -22 14 -22 14 -3 -8 11 -11
15 -21 10 -21 -5 0 -2 -5 6 -10 23 -15 -1 -31 -50 -33 -34 -1 -44 -6 -51 -24
-5 -13 -15 -23 -24 -23 -8 0 -15 -9 -15 -20 0 -13 5 -18 15 -14 8 4 15 10 15
16 0 5 5 6 12 2 6 -4 8 -3 5 3 -4 6 2 18 12 27 17 15 19 15 42 -5 24 -22 24
-22 1 -16 -25 6 -42 -15 -35 -43 3 -10 -5 -21 -24 -29 -20 -10 -24 -15 -13
-19 8 -2 23 -9 34 -14 13 -7 16 -7 11 1 -5 8 1 10 18 6 14 -4 28 -2 31 4 4 6
16 11 28 11 14 0 18 5 14 16 -4 11 3 25 21 40 26 22 22 31 -10 25 -5 -1 -6 3
-2 9 3 5 14 10 23 11 11 0 12 3 5 6 -7 2 -13 12 -13 20 0 13 -2 13 -17 2 -14
-12 -14 -10 2 21 9 19 24 43 33 53 8 9 12 20 9 23 -3 4 4 15 16 25 12 10 16
18 10 19 -7 0 -13 -4 -13 -10z m-60 -154 c0 -3 -4 -8 -10 -11 -5 -3 -10 -1
-10 4 0 6 5 11 10 11 6 0 10 -2 10 -4z"/>
<path d="M1495 1750 c-3 -5 -1 -10 4 -10 6 0 11 5 11 10 0 6 -2 10 -4 10 -3 0
-8 -4 -11 -10z"/>
<path d="M1458 1743 c7 -3 16 -2 19 1 4 3 -2 6 -13 5 -11 0 -14 -3 -6 -6z"/>
<path d="M7805 1730 c3 -5 1 -10 -4 -10 -6 0 -11 -9 -11 -20 0 -13 -7 -20 -20
-20 -13 0 -18 -5 -14 -15 5 -11 10 -13 19 -5 6 5 16 6 20 2 5 -4 5 -1 1 6 -4
6 -2 12 4 12 6 0 9 4 5 9 -3 6 2 14 11 19 17 9 12 32 -7 32 -6 0 -7 -4 -4 -10z"/>
<path d="M2097 1709 c7 -7 15 -10 18 -7 3 3 -2 9 -12 12 -14 6 -15 5 -6 -5z"/>
<path d="M2243 1710 c-13 -5 -23 -12 -23 -16 0 -3 8 -3 18 1 9 4 31 11 47 15
27 7 28 8 5 8 -14 1 -35 -3 -47 -8z"/>
<path d="M7060 1709 c0 -5 5 -7 10 -4 6 3 10 8 10 11 0 2 -4 4 -10 4 -5 0 -10
-5 -10 -11z"/>
<path d="M7859 1718 c-7 -29 -5 -36 7 -31 16 6 18 19 4 28 -5 3 -10 5 -11 3z"/>
<path d="M1 1658 c1 -55 5 -50 11 15 2 20 0 37 -4 37 -4 0 -7 -24 -7 -52z"/>
<path d="M2690 1700 c0 -6 7 -10 15 -10 8 0 15 2 15 4 0 2 -7 6 -15 10 -8 3
-15 1 -15 -4z"/>
<path d="M2335 1680 c3 -5 8 -10 11 -10 2 0 4 5 4 10 0 6 -5 10 -11 10 -5 0
-7 -4 -4 -10z"/>
<path d="M2520 1680 c0 -5 5 -10 11 -10 5 0 7 5 4 10 -3 6 -8 10 -11 10 -2 0
-4 -4 -4 -10z"/>
<path d="M7035 1681 c-3 -6 -11 -9 -16 -6 -5 4 -9 2 -9 -2 0 -5 -12 -14 -27
-19 l-28 -10 24 -13 c18 -10 32 -10 65 -1 41 11 83 36 75 44 -11 11 -77 17
-84 7z m40 -11 c3 -5 -1 -10 -10 -10 -9 0 -13 5 -10 10 3 6 8 10 10 10 2 0 7
-4 10 -10z"/>
<path d="M6900 1640 c-13 -8 -13 -10 2 -10 9 0 20 5 23 10 8 13 -5 13 -25 0z"/>
<path d="M108 1624 c-16 -8 -28 -21 -28 -28 0 -19 30 -29 46 -15 8 6 14 8 14
4 0 -5 9 0 20 10 11 10 20 23 20 29 0 6 -7 3 -14 -6 -17 -23 -24 -23 -28 1 -3
18 -5 18 -30 5z"/>
<path d="M6992 1603 c-6 -2 -10 -9 -6 -14 8 -14 21 -11 28 6 6 15 1 17 -22 8z"/>
<path d="M7080 1600 c0 -13 11 -13 30 0 12 8 11 10 -7 10 -13 0 -23 -4 -23
-10z"/>
<path d="M6878 1562 c-14 -16 -1 -29 14 -14 7 7 22 12 34 12 13 0 25 3 27 8 9
13 -64 8 -75 -6z"/>
<path d="M7414 1569 c-16 -6 -14 -8 8 -8 15 -1 29 -5 33 -11 6 -10 35 -2 35
10 0 11 -54 17 -76 9z"/>
<path d="M7660 1569 c0 -5 5 -7 10 -4 6 3 10 8 10 11 0 2 -4 4 -10 4 -5 0 -10
-5 -10 -11z"/>
<path d="M80 1545 c-7 -9 -10 -18 -7 -21 10 -11 37 5 37 21 0 19 -14 19 -30 0z"/>
<path d="M6810 1543 c0 -16 10 -16 33 1 17 13 16 14 -7 12 -15 0 -26 -7 -26
-13z"/>
<path d="M0 1530 c0 -5 9 -10 21 -10 11 0 17 5 14 10 -3 6 -13 10 -21 10 -8 0
-14 -4 -14 -10z"/>
<path d="M6920 1480 c0 -5 5 -10 11 -10 5 0 7 5 4 10 -3 6 -8 10 -11 10 -2 0
-4 -4 -4 -10z"/>
<path d="M7765 1477 c-41 -49 -42 -47 19 -47 57 0 68 9 43 34 -20 20 -51 26
-62 13z"/>
<path d="M6875 1471 c-3 -6 -26 -9 -50 -8 -25 1 -45 -1 -45 -5 0 -3 -12 -11
-27 -17 -23 -9 -14 -10 45 -6 68 5 112 20 112 37 0 11 -28 10 -35 -1z"/>
<path d="M7100 1470 c0 -5 7 -7 15 -4 8 4 15 8 15 10 0 2 -7 4 -15 4 -8 0 -15
-4 -15 -10z"/>
<path d="M6680 1449 c0 -5 5 -7 10 -4 6 3 10 8 10 11 0 2 -4 4 -10 4 -5 0 -10
-5 -10 -11z"/>
<path d="M2560 1440 c-22 -7 -21 -8 13 -9 23 -1 36 3 32 9 -7 11 -10 11 -45 0z"/>
<path d="M6965 1440 c3 -5 8 -10 11 -10 2 0 4 5 4 10 0 6 -5 10 -11 10 -5 0
-7 -4 -4 -10z"/>
<path d="M7245 1440 c-3 -5 1 -10 9 -10 9 0 16 5 16 10 0 6 -4 10 -9 10 -6 0
-13 -4 -16 -10z"/>
<path d="M7690 1446 c0 -2 7 -7 16 -10 8 -3 12 -2 9 4 -6 10 -25 14 -25 6z"/>
</g>
</svg>
